<?xml version='1.0' encoding='utf-8'?>
<svg xmlns="http://www.w3.org/2000/svg" enable-background="new 0 0 2000 2000" version="1.1" viewBox="0 0 2e3 2e3"> <style type="text/css">.st0{fill:#724B38;} .st1{fill:#6B4734;} .st2{fill:#724C39;} .st3{fill:#ECC293;} .st4{fill:#714B39;} .st5{fill:#633326;} .st6{fill:#47291C;} .st7{fill:#492B1E;} .st8{fill:#472719;} .st9{fill:#F0C695;} .st10{fill:#F5D3AD;} .st11{fill:#DADAD9;} .st12{fill:#6B4634;} .st13{fill:#DEA466;} .st14{fill:#C28443;} .st15{fill:#E7B67F;} .st16{fill:#563324;} .st17{fill:#C3894F;} .st18{fill:#CA9157;} .st19{fill:#553224;} .st20{fill:#A07965;} .st21{fill:#43261A;} .st22{fill:#714B38;} .st23{fill:#8B5D4B;} .st24{fill:#A96D34;} .st25{fill:#B77A3C;} .st26{fill:#D69A5C;} .st27{fill:#D39759;}</style> <path class="st0" d="m463.68 993.18c0.04-8.08 0.07-16.16 0.11-24.24 18.46-2.45 36.85-6.06 55.38-7.06 22.94-1.24 46.01-0.25 69.01-0.41 4.56-0.03 6.31 1.56 7.59 6.09 1.19 4.22 4.63 7.8 7.08 11.66-0.95 2.11-1.9 4.22-2.86 6.33-1.17 14.63 4.53 25.99 16.41 34.39 0.59 1.95 0.61 4.42 1.85 5.76 5.37 5.8 11.51 10.92 16.61 16.94 16.04 18.92 31.26 38.56 47.75 57.07 10.5 11.78 22.71 22.04 34.15 32.98-9.81 1.42-19.71 2.39-29.41 4.34-27.02 5.42-53.87 11.71-80.96 16.74-16.04 2.98-32.41 4.21-48.63 6.23-3.34-3.77-5.97-8.45-12.27-7.91-1.3 0.11-2.89-1.47-4.12-2.54-6.77-5.93-7.75-13.2-4.73-21.33 7.26-1.01 14.5-2.8 21.77-2.89 25.78-0.34 51.57-0.02 77.36-0.22 2.27-0.02 5.66-1.47 6.48-3.21 0.86-1.82-0.6-4.86-1.37-7.26-0.43-1.36-1.51-2.52-2.3-3.77-0.37-3.22-0.73-6.45-1.1-9.67-0.62-1.57-0.8-3.62-1.92-4.63-9.12-8.22-20.07-12.87-32.04-14.81-1.74-0.28-4.94 2.15-5.84 4.08-3.24 6.96-5.79 14.24-8.6 21.4-0.34 2.89-0.68 5.79-1.03 8.68-21.63 1.51-44.03-3.23-64.48 7.88l-6.48-4.56 0.04 0.05c-0.51-1.02-1.03-2.05-1.54-3.07 0 0 0.06 0.07 0.06 0.07l-1.56-1.56 0.06 0.06c-0.52-0.52-1.04-1.04-1.57-1.56l0.07 0.07-1.58-1.58s0.07 0.09 0.07 0.09c-0.52-1.03-1.04-2.06-1.55-3.09l0.04 0.06c-0.51-1.02-1.03-2.05-1.54-3.07l0.04 0.07c-0.52-1.03-1.04-2.06-1.55-3.09l0.08 0.1-1.58-1.58 0.07 0.07-1.57-1.57s0.06 0.07 0.06 0.07c-0.52-1.03-1.03-2.05-1.55-3.08l0.06 0.07-1.56-1.56 0.04 0.05c-0.51-1.02-1.03-2.05-1.54-3.07l0.06 0.07-1.57-1.57 0.06 0.07c-0.52-1.03-1.03-2.05-1.55-3.08l0.04 0.07c-0.55-1.03-1.11-2.06-1.66-3.09-8.25-3.71-5.02-10.98-5.27-16.61-1.91-1.67-4.32-2.79-4.99-4.56-2.35-6.23-8.42-10.38-5.55-19.64 1.89-6.09-2.93-14.85-3.39-22.78-0.24-4.11-2.96-8.08-4.35-11.57-2.71-1.56-5.17-2.98-7.63-4.4 0.14-2.54 0.27-5.08 0.41-7.61 9.44 1.47 18.84 3.25 28.32 4.34 12.98 1.49 26.01 2.45 39.02 3.64-3.56 3.85-7.11 7.71-10.67 11.56 0.95 4.89 1.89 9.79 2.84 14.68 0.51 1.13 1.02 2.27 1.53 3.4l0.02-0.19c3.35 15.42 18.37 21.37 26.63 32.81 0.22 0.3 0.94 0.37 1.41 0.33 10.05-0.98 20.28-1.16 30.07-3.34 5.53-1.23 9.42-6.53 9.31-13.01-0.09-5.54-2.89-9.31-8.59-10.48-3.13-6.54-6.26-13.07-9.39-19.61-0.72-6.11-1.44-12.22-2.17-18.33-0.55 0.06-1.09 0.11-1.64 0.17-0.53 1.02-1.07 2.05-1.6 3.07-1.49-9.34-2.75-10.27-11.95-8.27-5.25 1.14-10.46 2.53-15.68 3.81-1.32-0.33-2.63-0.9-3.97-0.95-11.61-0.43-23.31 0.05-34.8-1.35-12.96-1.6-25.06-8.58-38.71-6.59z"/> <path class="st1" d="m536.65 1128.2c-3.02 8.13-2.03 15.4 4.73 21.33 1.22 1.07 2.82 2.65 4.12 2.54 6.3-0.55 8.93 4.14 12.27 7.9 0.44 1.41 0.88 2.83 1.33 4.25 0.53 0.53 1.07 1.06 1.6 1.59l-0.03-0.04 3.05 3.05-0.05-0.06 1.57 1.57-0.08-0.08 1.58 1.58-0.08-0.08 1.59 1.59-0.09-0.09 1.59 1.59-0.1-0.08c1.03 0.52 2.07 1.04 3.1 1.56l-0.08-0.06 6.08 6.08-0.08-0.07c2.53 2.02 5.05 4.05 7.58 6.07l-0.07-0.05c1.02 0.51 2.05 1.03 3.07 1.54l-0.06-0.04h1.57c2.52 0.53 5.05 1.07 7.57 1.6l-0.03-0.03c-0.51 0.53-1.02 1.07-1.53 1.6 0.96 1.4 1.92 2.81 2.89 4.22 3.35 8.2 11.99 10.42 18.05 15.51 3.48 2.93 8.19 7.33 13.97 2.9 0.11-0.08 1.71 1.79 2.61 2.75 0.5 1 1 2.01 1.49 3.01 2.64 2.02 5.2 4.16 7.93 6.03 3.79 2.59 7.73 4.99 11.6 7.47 0.07 2.99-0.79 6.42 0.36 8.91 8.3 18.05 13.19 36.51 8.64 56.48l-4.65 20.46c-33.69-16.59-64.74-37.17-93.14-61.76-1.86-1.61-3.89-3.03-5.84-4.54-18.03-20.33-37.64-39.49-53.78-61.23-36.23-48.8-48.89-104.8-45.13-164.93 0.48-7.73 1.01-15.45 1.51-23.18 2.46 1.42 4.92 2.84 7.63 4.4 1.39 3.5 4.11 7.46 4.35 11.57 0.46 7.93 5.28 16.68 3.39 22.78-2.87 9.26 3.2 13.41 5.55 19.64 0.67 1.77 3.08 2.88 4.99 4.56 0.25 5.63-2.98 12.89 5.27 16.61 0.55 1.03 1.11 2.06 1.66 3.08l-0.04-0.07c0.52 1.03 1.03 2.05 1.55 3.08 0 0-0.06-0.07-0.06-0.07l1.57 1.57s-0.06-0.07-0.06-0.07c0.51 1.02 1.03 2.05 1.54 3.07l-0.04-0.05 1.56 1.56s-0.06-0.07-0.06-0.07c0.52 1.03 1.03 2.05 1.55 3.08 0 0-0.06-0.07-0.06-0.07l1.57 1.57-0.07-0.07 1.58 1.58-0.08-0.1c0.52 1.03 1.04 2.06 1.55 3.09l-0.04-0.07c0.51 1.02 1.03 2.05 1.54 3.07l-0.04-0.06c0.52 1.03 1.04 2.06 1.55 3.09 0 0-0.07-0.09-0.07-0.09l1.58 1.58-0.07-0.07c0.52 0.52 1.04 1.04 1.57 1.56l-0.06-0.06 1.56 1.56s-0.06-0.07-0.06-0.07c0.51 1.02 1.03 2.05 1.54 3.07l-0.04-0.05c2.06 2.64 4.12 5.28 6.18 7.91-0.27 5.76 3.51 4.15 6.53 3.44 2.36-0.53 4.59-1.53 6.86-2.34zm-68.13-112.19c-0.17-0.43-0.23-1.08-0.53-1.22-0.29-0.13-0.82 0.27-1.25 0.43 0.17 0.43 0.23 1.08 0.53 1.22 0.29 0.13 0.82-0.26 1.25-0.43z"/> <path class="st2" d="m489.73 875.7c15.95-33.08 38.61-61.2 64.52-86.85 60.7-60.09 133.89-97.8 215.67-120.07 4.33-1.18 8.69-2.27 13.03-3.41-0.21 0.96-0.43 1.91-0.64 2.87-3.37 2.57-6.73 5.13-10.1 7.7v-0.08c-7.21 5.09-14.41 10.18-21.62 15.27-19.24 10.86-39.46 20.33-57.37 33.05-12.25 8.7-21.29 21.92-31.76 33.12-8.57-1.54-17.14-3.08-25.7-4.62 0.64-0.74 1.15-1.71 1.95-2.19 21.63-13.17 43.35-26.18 64.91-39.46 9.45-5.82 18.56-12.19 27.83-18.3 0.65-0.21 1.3-0.42 1.94-0.62-0.14-0.19-0.38-0.54-0.39-0.53-0.55 0.35-1.07 0.73-1.6 1.1-3.12 0.8-6.45 1.14-9.33 2.47-23.31 10.8-46.82 21.21-69.66 32.93-13.99 7.18-26.91 16.46-40.31 24.79 0.26 0.54 0.52 1.08 0.77 1.62h17.97c1.29 0.94 2.47 2.42 3.9 2.72 8.21 1.72 16.48 3.17 24.73 4.7-6.73 14.71-15.89 28.84-19.62 44.27-5.94 24.57-15.62 47.29-26.55 69.73-2.74-0.03-5.5 0.12-8.22-0.13-28.56-2.62-57.03-1.68-85.55 1.13-9.47 0.94-19.19-0.73-28.8-1.21zm107.04-56.2c2.69 1.64 5.93 5.14 7.98 4.55 5.47-1.59 10.44-4.95 15.6-7.6-1.48-1.62-2.97-3.24-4.45-4.86-12.08-8.35-17.9-5.94-19.13 7.91zm-72.73 21.19 1.98 1.98c28.34-34.3 63.84-60.21 99.55-86.25-9.06 1.35-18.74-1.71-26.53 5.67-16.65 15.78-33.97 30.88-50.03 47.23-9.31 9.48-16.71 20.85-24.97 31.37z"/> <path class="st2" d="m1235 671.94c31.45 7.41 61.03 19.85 89.94 33.94 32.81 15.99 63.76 35.05 92.53 57.57 1.93 1.51 3.64 3.32 5.45 4.99-2.24 1.25-4.38 3.35-6.73 3.61-8.4 0.92-16.94 0.73-25.3 1.86-11.48 1.56-22.84 3.94-34.26 5.96-6.84-22.9-23.16-36.37-44.25-45.64-8.64-3.8-16.66-9.07-24.75-14.03-8.91-5.46-17.57-11.33-26.33-17.02-2.5-3.32-4.83-6.79-7.53-9.94-6.16-7.19-12.5-14.21-18.77-21.3z"/> <path class="st3" d="m782.31 668.24c0.21-0.96 0.43-1.91 0.64-2.87 9.01-6.41 18.01-12.82 27.02-19.22l1.54-1.54c0.36-0.17 0.74-0.22 1.14-0.15 5.09-3.04 10.18-6.09 15.27-9.13 2.45-0.98 4.91-1.96 7.36-2.93 3.05-0.97 6.09-1.95 9.14-2.92l0.06 0.01c4.03-0.96 8.06-1.92 12.09-2.88 9.97-1.02 19.95-2.03 29.92-3.05 24.89 0.02 49.77 0.11 74.65-0.08 2.2-0.02 4.38-1.84 6.57-2.82 15.85-4.18 31.71-8.3 47.54-12.57 26.7-7.19 52.75-4.48 78.64 4.29 24.07 8.15 48.47 15.3 72.5 23.54 12.67 4.34 24.96 9.87 37.23 15.28 2.44 1.08 4.04 4.07 6.03 6.18-0.98 0.39-1.96 0.78-2.95 1.17-2.05-1.62-4.43-2.96-6.09-4.92-3.76-4.43-5.91-2.87-7.64 1.57-9.32-2.98-18.61-6.04-27.95-8.93-18.43-5.71-37.34-10.2-55.23-17.28-21.55-8.53-43.48-15.38-66.52-13.97-19.62 1.2-39.15 5.4-58.47 9.48-7.32 1.55-16.1 2.68-20.12 11.16-1.95 0.09-3.91 0.18-5.86 0.27-3.12-1.11-6.17-2.89-9.36-3.17-6.41-0.57-13.07 0.59-19.32-0.61-9.44-1.82-18.76-5.84-25.52 4.98-22.52 1.51-45.04 3.01-67.56 4.52-3.5-2.06-4.78-0.72-4.53 2.96-2.56 1.4-5.54 2.35-7.59 4.28-5.69 5.37-10.99 11.15-16.44 16.77-1.72 0.36-3.43 0.73-5.15 1.09l2.16 1.92c-1.51 3-3.01 6.01-4.52 9.01-0.9-2.36-1.81-4.72-3.48-9.08-2.7 3.9-4.41 6.54-6.31 9.04-1.21 1.58-2.75 4.22-4.06 4.16-4.92-0.19-9.79-1.29-14.94-2.09v-3.86s0 0.08 0.01 0.08c3.09-0.42 6.17-0.84 9.25-1.26 0.21 0.11 0.42 0.22 0.63 0.34-0.21-0.12-0.41-0.23-0.62-0.35 0.29-2.14 0.57-4.28 0.84-6.42z"/> <path class="st4" d="m1484.7 833.8c7.4 11.53 14.79 23.07 22.19 34.6-8.19 0.67-16.39 1.3-24.57 2.03-19.8 1.77-39.6 3.6-59.4 5.41-5.6-16.67-17.65-28.95-28.63-41.96 15.19-0.51 30.39-1.39 45.58-1.41 14.94-0.02 29.88 0.85 44.83 1.33z"/> <path class="st4" d="m474.8 913.32c4.08-10.46 8.15-20.93 12.23-31.39 10.18-0.48 20.36-1.29 30.54-1.37 28.45-0.22 56.91-0.09 85.36-0.24 2.9-0.01 5.8-0.92 8.7-1.41-0.69 4.55-1.37 9.1-2.06 13.65-1.18 0.36-2.35 0.85-3.56 1.07-25.3 4.58-50.53 9.6-75.93 13.51-18.3 2.82-36.84 4.17-55.28 6.18z"/> <path class="st4" d="m1516.8 887.06c2.23 6.78 4.46 13.56 6.68 20.35-9.29 1.36-18.55 3-27.88 4.01-17.21 1.86-34.47 3.34-51.71 4.98-0.84-2.57-1.47-5.24-2.56-7.71-4.19-9.49-8.52-18.91-12.8-28.35 0.88-0.42 1.73-1.13 2.64-1.2 20.18-1.61 40.38-3.14 60.56-4.72 5.86-0.46 11.7-1.03 17.55-1.54 2.19 4.03 4.39 8.05 6.58 12.08 0.3 0.65 0.61 1.29 0.91 1.94l0.03 0.16z"/> <path class="st4" d="m468.3 937.13c1.67-6.41 3.35-12.81 5.02-19.22 5.44-0.46 10.9-0.75 16.31-1.42 22.39-2.78 44.79-5.47 67.13-8.59 16.95-2.37 33.81-5.32 50.7-8.02-3.58 9.04-7.15 18.08-10.73 27.12-18.5 2.01-36.98 4.16-55.5 5.98-9.65 0.95-19.35 1.4-29.03 1.93-14.63 0.81-29.26 1.49-43.9 2.22z"/> <path class="st5" d="m1206.7 658.54c0.98-0.39 1.96-0.78 2.95-1.17 0.93 0.1 1.85 0.2 2.78 0.29 0.52 0.1 1.05 0.19 1.57 0.29 7 4.66 14.01 9.32 21.01 13.99 6.27 7.09 12.61 14.11 18.77 21.29 2.7 3.15 5.03 6.62 7.53 9.94 0.07 1.8 0.14 3.6 0.21 5.4-5.26 3.12-10.15 7.72-15.83 9.09-21.37 5.17-42.16 0.45-62.48-6.21-6.79-2.23-8.7-7.36-5.76-13.86 6.85-15.12 15.32-29.16 29.25-39.05zm-1.83 34.15c10.46-0.07 16.31-4.81 18.97-15.18 1.52-5.91-1.35-9.5-6.11-12.18-4.86-2.75-8.79-1.16-11.56 3.13-2.96 4.59-5.85 9.31-8.05 14.29-3.68 8.35-2.39 9.99 6.75 9.94z"/> <path class="st2" d="m1429.3 773.7c0.37 0.27 0.73 0.53 1.1 0.8 0.44 0.39 0.87 0.78 1.31 1.17 8.11 7.85 16.22 15.71 24.33 23.56-11.7 1.84-23.38 3.89-35.12 5.46-17.86 2.39-35.76 4.45-53.64 6.65-3.17-9.38-6.34-18.77-9.51-28.15 23.84-3.16 47.68-6.33 71.53-9.49z"/> <path class="st2" d="m464.51 963c0.89-6.51 1.79-13.03 2.68-19.54 1.67-0.45 3.33-1.21 5.03-1.31 26.98-1.6 53.99-2.88 80.96-4.74 14.05-0.97 28.04-2.9 42.06-4.4 0.01 4.01 0.03 8.03 0.04 12.04-0.95 10.47-0.95 10.48-10.86 10.49-11.26 0.01-22.53-0.33-33.77 0.09-17.91 0.68-35.83 1.54-53.69 2.95-10.87 0.87-21.64 2.91-32.45 4.42z"/> <path class="st4" d="m1461.8 805.37c6.48 8.01 12.97 16.02 19.45 24.03-7.6-0.13-15.19-0.26-22.79-0.37-18.46-0.28-36.97-1.49-55.37-0.51-13.47 0.72-14.71 1.41-21.7-10.54 1.33-0.64 2.58-1.65 3.95-1.82 13.06-1.68 26.17-3.04 39.21-4.87 12.45-1.74 24.84-3.93 37.25-5.92z"/> <path class="st6" d="m464.51 963c10.81-1.51 21.58-3.55 32.45-4.41 17.87-1.41 35.78-2.28 53.69-2.95 11.24-0.42 22.51-0.08 33.77-0.09 9.91-0.01 9.91-0.02 10.86-10.49 1.13 0.42 2.75 0.49 3.31 1.3 8.4 12.09 20.4 17.78 34.54 19.8-8.33 8.43-17.66 14.56-30.28 13.06-2.45-3.86-5.89-7.44-7.08-11.66-1.28-4.53-3.03-6.12-7.59-6.09-23.01 0.17-46.07-0.83-69.01 0.41-18.53 1-36.93 4.61-55.38 7.06l0.72-5.94z"/> <path class="st7" d="m1461.8 805.37c-12.41 1.99-24.8 4.18-37.24 5.92-13.04 1.83-26.15 3.18-39.21 4.87-1.36 0.18-2.62 1.19-3.95 1.82 6.99 11.95 8.22 11.26 21.7 10.54 18.39-0.99 36.91 0.23 55.37 0.51 7.6 0.11 15.19 0.25 22.79 0.37 1.13 1.47 2.26 2.93 3.38 4.4-14.94-0.48-29.89-1.35-44.83-1.33-15.19 0.02-30.39 0.9-45.58 1.41-4.57 0.53-9.13 1.06-13.7 1.59-4.44-8.04-8.87-16.09-13.31-24.13 17.88-2.2 35.78-4.26 53.64-6.65 11.74-1.57 23.41-3.62 35.12-5.46 1.94 2.05 3.88 4.1 5.82 6.14z"/> <path class="st6" d="m607.47 899.87c-16.9 2.7-33.76 5.65-50.71 8.02-22.34 3.12-44.74 5.81-67.13 8.59-5.41 0.67-10.87 0.96-16.31 1.42 0.49-1.53 0.98-3.06 1.48-4.59 18.44-2.01 36.97-3.36 55.29-6.18 25.4-3.92 50.63-8.94 75.93-13.51 1.21-0.22 2.37-0.71 3.56-1.07-0.03 0.95-0.06 1.9-0.09 2.85-0.2 0.57-0.4 1.15-0.6 1.72-0.08 0.95-0.17 1.91-0.25 2.86-0.39-0.07-0.78-0.1-1.17-0.11z"/> <path class="st7" d="m595.23 933.01c-14.02 1.5-28.01 3.43-42.06 4.4-26.97 1.85-53.97 3.14-80.96 4.74-1.69 0.1-3.35 0.86-5.03 1.31l1.11-6.33c14.63-0.73 29.27-1.41 43.9-2.21 9.68-0.53 19.38-0.99 29.03-1.93 18.52-1.82 37-3.97 55.5-5.98-0.49 1.99-0.99 4-1.49 6z"/> <path class="st7" d="m611.63 878.91c-2.9 0.49-5.8 1.4-8.7 1.41-28.45 0.14-56.91 0.02-85.36 0.24-10.18 0.08-20.36 0.89-30.54 1.37 0.9-2.08 1.8-4.15 2.7-6.23 9.61 0.48 19.33 2.15 28.8 1.22 28.52-2.81 56.99-3.75 85.55-1.13 2.72 0.25 5.48 0.1 8.22 0.13-0.22 0.99-0.45 1.99-0.67 2.99z"/> <path class="st8" d="m1509.3 872.87c-5.85 0.52-11.7 1.09-17.55 1.54-20.19 1.58-40.38 3.11-60.56 4.72-0.91 0.07-1.76 0.79-2.64 1.21h-24.07c-0.97 2.96-1.71 5.2-2.44 7.44-1.56-4.99-3.12-9.98-4.69-14.97-0.17-1.99-0.34-3.98-0.5-5.96 0.72 0.2 2.02 0.3 2.07 0.61 1.54 9.78 8.76 8.86 15.74 8.5 2.74-0.14 5.48-0.08 8.23-0.11 19.8-1.81 39.6-3.63 59.4-5.41 8.19-0.73 16.38-1.36 24.57-2.03 0.8 1.48 1.62 2.97 2.44 4.46z"/> <path class="st8" d="m463.68 993.18c13.65-1.99 25.75 4.99 38.72 6.58 11.48 1.4 23.19 0.92 34.8 1.35 1.33 0.05 2.65 0.62 3.97 0.95-3.38 1.13-6.75 2.27-10.13 3.4-13.01-1.19-26.05-2.15-39.02-3.64-9.48-1.09-18.88-2.87-28.32-4.34-0.01-1.43-0.02-2.87-0.02-4.3z"/> <path class="st7" d="m1429.3 773.7c-23.84 3.17-47.69 6.33-71.53 9.5-0.37-1.11-0.73-2.22-1.1-3.33 11.41-2.03 22.78-4.41 34.26-5.96 8.36-1.13 16.9-0.94 25.3-1.86 2.35-0.26 4.49-2.36 6.73-3.61 2.11 1.75 4.22 3.5 6.34 5.26z"/> <path class="st9" d="m967.71 620.65c-2.19 0.98-4.37 2.81-6.57 2.82-24.88 0.18-49.77 0.09-74.65 0.08 2.64-0.47 5.27-1.3 7.91-1.33 12.99-0.15 25.99 0.1 38.98-0.15 11.45-0.22 22.89-0.93 34.33-1.42z"/> <path class="st9" d="m827.92 635.32c-5.09 3.04-10.18 6.09-15.27 9.13 5.09-3.04 10.18-6.08 15.27-9.13z"/> <path class="st10" d="m856.57 626.6c-4.03 0.96-8.06 1.92-12.09 2.88 4.03-0.96 8.06-1.92 12.09-2.88z"/> <path class="st10" d="m844.42 629.47c-3.04 0.97-6.09 1.95-9.14 2.92 3.05-0.98 6.09-1.95 9.14-2.92z"/> <path class="st9" d="m811.51 644.6-1.54 1.54c0.52-0.51 1.03-1.02 1.54-1.54z"/> <path class="st3" d="m1214 657.95c-0.52-0.1-1.05-0.19-1.57-0.29 0.52 0.1 1.05 0.2 1.57 0.29z"/> <path class="st11" d="m1516.8 886.88c-0.3-0.65-0.61-1.29-0.91-1.94 0.3 0.65 0.6 1.3 0.91 1.94z"/> <path class="st7" d="m1431.7 775.67c-0.44-0.39-0.87-0.78-1.31-1.17 0.44 0.39 0.87 0.78 1.31 1.17z"/> <path class="st12" d="m1178.3 1376.3c-24.54 4.38-48.97 9.57-73.64 12.96-45.68 6.27-91.69 7.88-137.75 6.17-55.35-2.05-110.07-9.15-163.95-22.19-1.68-0.41-3.29-1.11-4.94-1.67-2.83-16.91-2.13-33.71 3.21-49.98 3.15-9.59 7.79-18.69 11.76-28.01 1.42 0.47 2.8 1.13 4.26 1.37 21.59 3.65 43.09 8.02 64.8 10.67 26.43 3.22 53.02 6.61 79.59 6.98 38.67 0.54 77.41-0.95 116.07-2.79 19.83-0.94 39.6-4.09 59.28-7.03 17.23-2.57 34.29-6.24 51.43-9.43 3.26 28.46-8.21 55.12-10.12 82.95z"/> <path class="st12" d="m1397.4 1286c-27.76 20.18-58.07 35.8-89.43 49.41-15.05 6.53-30.59 11.94-45.9 17.85 0.01-26.92 0.02-53.83 0.02-80.75 23.31-10.07 46.68-20.01 69.89-30.3 4.96-2.2 9.35-5.71 14.01-8.61 2.69 0.41 5.36 1.04 8.06 1.21 24.48 1.52 37.82 14.31 40.37 38.45 0.46 4.31 1.96 8.5 2.98 12.74z"/> <path class="st8" d="m1443.9 916.4c17.24-1.64 34.49-3.12 51.7-4.98 9.33-1.01 18.59-2.65 27.88-4.01 0.48 1.53 0.95 3.05 1.43 4.58-1.99 0.08-3.99 0.02-5.96 0.26-24.06 2.89-48.11 5.82-72.17 8.74-13.29 0.62-26.59 1.23-40.96 1.9 0.96 14.37 1.86 27.86 2.89 43.32 17.23-3.31 32.14-6.17 47.06-9.03 26.94-1.52 51.57-10.7 75.32-22.79 0.41 2.03 0.81 4.07 1.22 6.1-2.12 0.58-4.28 1.04-6.35 1.75-15.88 5.42-31.66 11.16-47.67 16.2-7.23 2.27-14.9 3.16-22.36 4.68-14.89 2.2-29.77 4.41-44.74 6.62 0.76 8.5 2.07 16.39 1.99 24.26-0.08 8.02-1.51 16.03-2.42 24.61 2.76 0 5.5 0.25 8.18-0.04 12.82-1.42 25.63-2.99 38.44-4.5 9.01-1.75 18.07-3.23 27-5.29 17.65-4.08 35.23-8.48 52.84-12.75-0.6 0.93-1.19 1.86-1.79 2.78-1.53 1.08-3.05 2.16-4.58 3.24-11.79 2.53-23.6 4.97-35.36 7.63-12.74 2.88-25.44 5.95-38.16 8.94-0.51 0.48-1.01 0.96-1.52 1.43l-0.06 0.03c-14.82 1.52-29.65 2.97-44.45 4.67-1.72 0.2-3.88 1.37-4.81 2.77-11.73 17.57-28.67 28.81-46.49 39.17-5.45 3.17-10.2 7.52-16.2 12.01 32.3 2.12 62.34 4.09 92.38 6.07 1.35 0.47 2.72 1.4 4.05 1.34 20.25-0.9 40.5-1.92 60.75-2.92-0.98 1.56-1.96 3.13-2.94 4.69-22.07 0.45-44.15 0.9-66.22 1.35-2-0.03-4.01 0.01-6.01-0.1-26.85-1.47-53.69-2.94-80.54-4.44-4.36-0.24-7.3 0.33-8.56 5.81-1.42 6.17-4.2 12.17-7.26 17.77-4.53 8.28-9.83 16.13-15.01 24.51 25.38 0 50.4-0.07 75.42 0.07 3.93 0.02 7.86 0.96 11.79 1.47 14.51-0.01 29.04-0.3 43.54 0.11 6.06 0.17 12.08 1.84 18.12 2.83-1.35 0.71-2.7 1.43-4.05 2.14-2.72-0.22-5.45-0.69-8.17-0.62-19.4 0.49-38.79 1.09-58.19 1.66-22.5-0.05-45-0.15-67.49-0.14-10.5 0.01-21.67-2.33-29.53 7.79-0.28 0.36-0.86 0.48-1.3 0.72-12.61 6.79-25 14.05-37.9 20.22-8.83 4.22-18.38 6.93-27.61 10.32-4.16-3.1-8.32-6.19-12.48-9.29 5.46-2.24 10.75-5.65 16.42-6.52 18.45-2.84 33.77-11.5 47.47-23.53 8.13-7.15 15.88-14.74 23.8-22.13l-0.04-0.02c0.47-0.54 0.93-1.08 1.4-1.62 1.44-2.03 2.89-4.06 4.33-6.09 6.7-11.83 13.39-23.65 20.09-35.48 11.94-8.44 23.6-17.31 35.89-25.21 18.8-12.09 30.49-28.88 35.79-50.38 0.48-9.84 2.72-19.99 1.05-29.45-2.75-15.52-1.85-30.53 0.83-45.72 0.61-5.91 1.22-11.81 1.83-17.72 0.62 0.93 0.92 1.9 0.78 2.81-1.13 7.06 1.57 9.81 8.87 9.09 9.55-0.95 19.19-1.17 28.8-1.69z"/> <path class="st7" d="m659.67 1320.7c1.55-6.82 3.09-13.64 4.65-20.46 4.55-19.97-0.34-38.43-8.64-56.48-1.15-2.5-0.29-5.92-0.36-8.91 3.67 1.92 7.35 3.84 11.76 6.15-0.36-9.21 4.7-14.42 11.13-18.13 6.91-3.99 14.01-8.17 21.59-10.37 24.09-6.99 48.45-13.09 72.7-19.54v4.51c-1.11 0.47-2.18 1.08-3.34 1.38-22.85 5.93-45.87 11.27-68.48 17.99-9.1 2.71-17.92 7.58-25.73 13.08-6.35 4.48-4.43 13.57 2.66 16.81 8.35 3.82 16.92 7.15 25.4 10.7 1.12 0.51 2.23 1.01 3.35 1.52l-0.02-0.01c3.01 1 6.01 2.01 9.02 3.01h-0.01c2.01 1.01 4.01 2.01 6.02 3.02l-0.02-0.03c4.39 1.64 8.79 3.28 13.18 4.92 0.61 0.85 1.23 1.69 1.84 2.54-0.48 1.85-1.34 3.7-1.39 5.56-0.6 20.67-0.91 41.35-1.73 62.01-0.15 3.7-2.21 7.32-3.39 10.97-23.39-10.09-46.79-20.16-70.19-30.24z"/> <path class="st7" d="m1262 1272.5c-0.01 26.92-0.02 53.83-0.02 80.75-27.92 7.66-55.84 15.33-83.76 22.99 1.91-27.83 13.37-54.5 10.1-82.96 0.33-0.71 0.66-1.41 1-2.11 0.8 0.17 1.6 0.34 2.39 0.5 2.41-0.46 4.9-0.65 7.21-1.41 19.92-6.52 39.8-13.18 59.75-19.62 0.83-0.26 2.21 1.2 3.33 1.86z"/> <path class="st7" d="m1508.4 1167.3c-11.97 24.47-28.61 45.58-47.15 65.31-2.21 2.35-4.62 4.52-6.93 6.78-0.49-1.83-1.44-3.67-1.38-5.48 0.33-10.47-0.42-20.58-4.44-30.58-3.91-9.73-6.39-20.02-9.5-30.07 3.89-4.14 7.99-8.1 11.61-12.46 6.39-7.71 12.48-15.66 18.69-23.51l0.07-0.07c2.44-1.89 5.5-3.33 7.21-5.73 10.11-14.18 19.9-28.59 29.8-42.91 0.47 8.03 1.45 16.07 1.29 24.08-0.22 10.66-1.54 21.29-1.97 31.94-0.27 6.6 0.14 13.23 0.49 19.83 0.05 0.98 1.44 1.91 2.21 2.87z"/> <path class="st6" d="m1397.4 1286c-1.02-4.24-2.53-8.44-2.98-12.74-2.55-24.14-15.89-36.93-40.37-38.45-2.7-0.17-5.37-0.8-8.06-1.21-6.41 1.05-12.83 2.1-19.24 3.15-2.52-0.61-5.02-1.73-7.55-1.76-15.94-0.19-31.88-0.15-47.81-0.17-8.6-0.01-17.2 0-25.79 0-10.72-1.48-21.43-4.05-32.18-4.21-20.44-0.31-40.95 0.01-61.33 1.47-18.78 1.35-37.41 4.58-56.12 6.88-14.04 1.73-28.13 3.07-42.14 5.05-5.27 0.74-10.36 2.79-15.54 4.24-9.7 0.52-19.44 0.66-29.1 1.62-28.45 2.84-57.13 4.49-85.22 9.44-29.82 5.26-59.16 13.44-88.51 21.12-6.41 1.68-11.96 6.62-17.91 10.05-1.48 0.26-2.96 0.52-4.43 0.77 1.55-1.82 2.75-4.36 4.72-5.32 9.82-4.79 19.43-10.73 29.86-13.37 28.83-7.29 57.89-13.89 87.13-19.3 18.73-3.47 37.94-4.35 56.93-6.39 19.4-2.49 38.79-5.05 58.2-7.46 24.82-3.08 49.66-6.03 74.49-9.03 16.72-2.02 33.4-4.5 50.17-5.93 13.36-1.14 26.85-1.77 40.23-1.27 19.81 0.74 39.58 2.69 59.36 4.12 27.65-1.16 55.3-2.31 82.95-3.47 14.05 0.6 24.2-8.21 35.34-14.62 4.12-0.45 8.24-0.91 12.36-1.36-1.03 24.96-2.05 49.92-3.08 74.88-1.45 1.1-2.91 2.18-4.38 3.27z"/> <path class="st2" d="m1455.9 963.12c7.47-1.52 15.13-2.4 22.36-4.68 16-5.04 31.78-10.78 47.67-16.2 2.08-0.71 4.23-1.17 6.35-1.75 1.13 8.11 2.46 16.19 3.35 24.32 1.14 10.4 1.92 20.84 2.86 31.27-0.43-0.01-0.86-0.02-1.3-0.05-17.61 4.27-35.19 8.67-52.84 12.75-8.93 2.06-18 3.55-27 5.3 0-3.23 0.09-6.47-0.01-9.7-0.44-13.77-0.95-27.52-1.44-41.26z"/> <path class="st1" d="m729.86 1351c1.18-3.65 3.25-7.27 3.39-10.97 0.81-20.66 1.13-41.34 1.73-62.01 0.05-1.87 0.91-3.71 1.39-5.56 3.56 0.51 7.11 1.02 10.67 1.53 0.39-0.01 0.79-0.02 1.19-0.02 0.12 0.47 0.21 0.94 0.26 1.42 0.48 2.21 0.23 5.16 1.58 6.45 2.45 2.34 5.68 4.07 8.87 5.38 13.92 5.69 24.36 14.59 27.59 29.91 2.6 12.35 4.95 24.78 6.8 37.26 0.78 5.23 0 10.69-0.06 16.05-21.13-6.48-42.27-12.96-63.41-19.44z"/> <path class="st12" d="m1401.8 1282.8c1.03-24.96 2.05-49.92 3.08-74.88l1.35-8.85c10.95-8.59 21.89-17.17 32.84-25.76 3.11 10.05 5.6 20.34 9.5 30.07 4.02 9.99 4.77 20.11 4.44 30.58-0.06 1.81 0.9 3.66 1.38 5.48-17.53 14.46-35.06 28.91-52.59 43.36z"/> <path class="st1" d="m1537.2 996.02c0.43 0.03 0.86 0.05 1.3 0.05 0.07 7.97 0.6 15.97 0.13 23.91-1.81 30.57-0.04 61.43-7.67 91.52-4.99 19.65-11.71 38.56-22.57 55.81-0.77-0.96-2.16-1.88-2.21-2.88-0.35-6.6-0.76-13.24-0.49-19.83 0.43-10.66 1.75-21.29 1.97-31.94 0.16-8.02-0.82-16.05-1.29-24.08 3.45-6.85 7.27-13.55 10.29-20.59 9.49-22.16 17.13-44.87 18.76-69.19 0.59-0.92 1.18-1.85 1.78-2.78z"/> <path class="st2" d="m1446.8 920.98c24.06-2.92 48.11-5.85 72.17-8.74 1.97-0.24 3.97-0.18 5.96-0.26 2.06 7.47 4.11 14.93 6.17 22.4-23.74 12.1-48.37 21.27-75.32 22.79-2.99-12.06-5.99-24.13-8.98-36.19z"/> <path class="st6" d="m793.27 1370.4c0.07-5.36 0.84-10.82 0.06-16.05-1.86-12.48-4.2-24.91-6.8-37.26-3.23-15.32-13.67-24.23-27.59-29.91-3.19-1.3-6.42-3.04-8.87-5.38-1.35-1.29-1.11-4.25-1.58-6.45 14.48 4.01 28.95 8.01 43.43 12.02 7.01 2.04 14.03 4.08 21.04 6.12l-0.01 0.03c-3.97 9.32-8.61 18.42-11.76 28.01-5.34 16.27-6.03 33.07-3.21 49.98-1.56-0.36-3.13-0.74-4.71-1.11z"/> <path class="st13" d="m1356.7 779.86c0.37 1.11 0.73 2.22 1.1 3.33 3.17 9.38 6.34 18.77 9.51 28.15 4.44 8.04 8.87 16.09 13.31 24.13 5.43 10.46 10.87 20.91 16.3 31.37 0.17 1.99 0.34 3.98 0.5 5.96-1.06 9.58-1.76 19.21-3.25 28.71-3.38 21.54-8.65 42.31-26.8 56.94l-15.09-9.21c-1.01-0.1-2.02-0.21-3.03-0.31l-2.97 0.69c-1.51-3.31-2.4-7.13-4.65-9.81-4.96-5.92-8.38-5.32-11.6 1.67-1.55 3.36-2.2 7.13-3.51 10.61-4.01 10.63-7.7 21.4-12.34 31.75-5.34 11.9-16.19 18.62-26.44 25.73-0.58-1.96-1.16-3.93-1.74-5.89-1.72-5.64-2.95-11.48-5.24-16.88-6.77-15.95-12.45-18.93-29.15-16.22-10.79-4.69-21.54-2.08-31.65 1.52-20.27 7.23-33.72 27.64-23.24 46.92 1.04 4.4 0.8 9.86 3.38 12.98 5.94 7.21 13.26 13.28 20.01 19.81-4.91 3.55-9.66 7.36-14.77 10.61-22.17 14.12-45.24 24.54-72.47 16.28-0.55-0.47-1.09-0.93-1.64-1.4-2.1-3.36-4.02-6.85-6.34-10.04-12.28-16.85-18.6-17.95-36.69-6.93-16.12 9.82-28.63 23-37.65 39.55-12.64 3.31-22.04 11.29-30.23 21.02-7 0.48-13.99 0.96-20.99 1.44-8.66 0.45-17.32 1.15-25.99 1.3-16.94 0.3-33.88 0.29-50.81 0.41-3.7-10.35-10.8-16.61-21.98-16.81-11.64-0.21-29.24 12.62-33.65 23.8-6.89-1.91-13.88-3.51-20.63-5.82-7.92-2.72-15.63-6.06-23.42-9.14 0.92-1.13 1.85-2.26 2.75-3.41 13.39-17.07 23.98-35.28 23.44-57.98 0.53-6.38-3.02-10.41-8.06-13.27-16.28-9.26-33.86-13.59-52.52-11.88-6.07 0.55-12.05 3.04-17.86 5.21-5.75 2.15-8.68 6.92-8.3 12.96 0.4 6.42 1.63 12.79 2.49 19.18 1.15 5.42 2.3 10.85 3.45 16.27-28.59-0.65-53.02-11.82-75.28-29.09-12.34-9.57-24.99-18.83-38.18-27.15-8.36-5.27-18.08-8.33-27-12.76-12.57-6.24-19.71-17.91-27.74-28.63 0.95-2.11 1.9-4.22 2.86-6.33 12.62 1.5 21.94-4.64 30.28-13.06 12.13-8.76 16.26-15.93 11.15-25.91-6.38-12.46-14.66-24.05-23.13-35.26-2.32-3.07-8.25-3.41-12.52-5 0.08-0.95 0.17-1.91 0.25-2.86 0.2-0.57 0.4-1.15 0.6-1.72 0.03-0.95 0.06-1.9 0.09-2.85 0.68-4.55 1.37-9.1 2.05-13.65 0.22-1 0.45-1.99 0.67-2.99 10.94-22.44 20.61-45.16 26.55-69.73 3.73-15.44 12.9-29.56 19.62-44.27 0.99-1.54 1.99-3.07 2.99-4.61 10.47-11.2 19.51-24.42 31.76-33.12 17.91-12.72 38.13-22.19 57.37-33.05 1.42 0.14 2.84 0.27 4.25 0.41-1.01 2.9-2.03 5.79-3.04 8.69-14.42 8.4-29.14 16.32-43.14 25.37-9.32 6.03-18.35 12.93-26.11 20.83-6.18 6.29-10.65 14.42-15.16 22.16-8.89 15.24-18.73 30.12-21.64 48.1-2.22 13.71-4.6 27.4-6.93 41.09-2.57 15.14 2.97 26.72 15.31 35.5 6.07 4.32 11.97 8.89 17.79 13.55 23.18 18.56 46.53 36.72 75.41 46.03 6.52 2.1 13.04 5.11 18.61 9.03 12.79 9 24.47 19.63 37.56 28.11 16.38 10.6 34.42 18.16 53.86 21.15 16.7 2.57 29.84 9.48 38.81 24.46 3.73 6.23 9.47 11.58 15.17 16.26 12.05 9.9 26.48 12.81 41.87 13.43 14.36 0.58 28.64 2.86 42.97 4.09 20.63 1.77 39.51-1.41 54.95-17.31 4.76-4.9 11.87-8.32 18.53-10.38 10.17-3.13 20.99-4.06 31.34-6.68 29.33-7.45 54.43-20.85 68.23-49.8 1.66-3.48 4.3-6.99 7.41-9.19 11.98-8.49 24.2-16.65 36.57-24.58 19.26-12.34 38.71-24.4 58.1-36.55 4.16-2.61 8.41-5.09 12.61-7.64 6.35 4.93 13.61 8.68 21.43 5.78 18.78-6.96 32.2-20.03 40.16-38.54 2.06-6.1 4.63-12.07 6.05-18.31 2-8.77-1.03-14.33-9.32-17.92-4.53-1.96-9.41-3.09-14.13-4.59 0.1-1.49-0.17-3.12 0.35-4.44 5.11-12.97 6.24-26.51 5.68-40.24-0.99-24.1-11.26-42.58-32.58-54.91-13.68-7.92-26.71-16.96-40.04-25.5-0.07-1.8-0.14-3.6-0.21-5.4 8.76 5.69 17.42 11.56 26.33 17.02 8.09 4.96 16.11 10.23 24.75 14.03 21.1 9.26 37.43 22.74 44.27 45.63zm-672.6 255.16c5.95 0.58 8.29-1.61 7.19-6.47-0.65-2.88-2.21-5.54-3.19-8.35-3.01-8.61-5.97-17.24-8.88-25.89-0.67-2-0.97-5.82-1.6-5.85-2.48-0.13-5.92 0.09-7.37 1.67-4.51 4.91-8.49 10.35-12.26 15.86-4.58 6.7-2.74 12.95 4.28 16.76 5.67 3.08 11.2 6.42 16.82 9.6 1.91 1.1 3.9 2.08 5.01 2.67zm34.94-77.35c-0.1 0.32-0.21 0.64-0.31 0.96-1.73 0-3.79-0.6-5.13 0.13-2.54 1.38-4.68 3.52-6.98 5.34 2.31 2.01 4.72 5.78 6.9 5.66 4.13-0.24 8.24-2.49 12.1-4.42 0.93-0.47 1.52-4.1 1.1-4.35-2.37-1.43-5.08-2.27-7.68-3.32zm32.86 37.54c-4.17 2.95-6.72 4.75-9.27 6.55 3.74 2.12 7.28 4.84 11.28 6.2 3.6 1.22 6.19-1.47 4.9-4.98-0.99-2.67-3.98-4.61-6.91-7.77zm216.04 92.13c1.25-0.44 2.51-0.88 3.76-1.33 3.5-2.95 7-5.9 10.51-8.86-1.24-0.9-2.44-2.51-3.73-2.59-5.85-0.36-12.54 3.81-12.05 7.24 0.27 1.88 0.99 3.69 1.51 5.54zm-81.68-6.75c-3.56-1.88-5.92-3.63-6.32-3.26-2.84 2.62-5.32 5.64-7.71 8.68-0.11 0.13 2.29 2.72 2.53 2.57 3.36-2.09 6.55-4.46 11.5-7.99zm476.02-159.19c-0.6 0.89-1.21 1.79-1.81 2.68 3.39 2.33 6.78 4.67 10.17 7 0.73-1.6 2.44-3.53 2.04-4.75-1.71-5.15-5.74-6.02-10.4-4.93zm-684.22-2.78c-4.18-2.72-6.83-4.44-9.47-6.17-0.82 1.3-2.62 3.33-2.3 3.77 1.71 2.3 3.81 4.42 6.16 6.04 0.51 0.35 2.63-1.65 5.61-3.64zm53.53 137.01c2.37-3.22 4.5-5.13 4.16-5.85-1.24-2.58-3.31-4.76-5.07-7.09-1.07 1.31-3.17 2.8-2.99 3.91 0.41 2.48 1.96 4.78 3.9 9.03zm568.78-99.03c-3 4.19-5.22 7.3-7.45 10.41 1.44 0.53 3.43 1.95 4.23 1.45 3.38-2.1 7.2-4.44 3.22-11.86zm70.96-73.31c-1.79 2.6-3.63 4.64-3.36 4.97 1.98 2.43 4.38 4.52 6.65 6.71 1-1.19 3.07-2.98 2.81-3.46-1.45-2.57-3.48-4.82-6.1-8.22zm-703.29 84.71c0.79 0.03 1.58 0.05 2.37 0.08 0.98-2.12 2.52-4.18 2.73-6.37 0.12-1.27-1.9-2.75-2.96-4.14-1.43 2.02-3.3 3.88-4.11 6.12-0.39 1.06 1.25 2.85 1.97 4.31zm611.11-23.13c1.78-2.34 4-4.29 3.66-4.99-0.96-1.99-2.8-3.77-4.71-4.93-0.48-0.29-3.89 2.6-3.68 3.16 0.79 2.09 2.53 3.81 4.73 6.76zm-637.86 49.48c-2.27 3.09-4.04 4.77-4.73 6.8-0.27 0.8 1.87 2.42 2.91 3.67 1.71-1.53 3.87-2.81 4.91-4.71 0.44-0.8-1.48-2.9-3.09-5.76z"/> <path class="st14" d="m600 985.55c8.04 10.72 15.17 22.39 27.74 28.63 8.92 4.43 18.64 7.49 27 12.76 13.19 8.32 25.85 17.58 38.18 27.15 22.26 17.27 46.69 28.45 75.28 29.09 4.92 9.7 9.06 19.91 14.96 28.98 7.81 12 15.69 14.35 32.5 7.89 2.51-0.97 4.77-2.61 7.14-3.94 7.8 3.07 15.5 6.42 23.43 9.14 6.75 2.32 13.75 3.91 20.64 5.82-1.18 11.55 6.1 16.6 17.29 19.18 23.61 5.45 38.43-4.65 38.33-26.18 16.94-0.12 33.88-0.11 50.81-0.41 8.67-0.15 17.33-0.85 25.99-1.3-1.3 1.51-2.6 3.02-3.9 4.53-8.61 10.1-10.5 25.68-4.53 37.23 7.72 14.9 26.49 17.68 38.11 5.85 7.21-7.33 8.43-16.41 5.22-24.98-3.21-8.56-9.17-16.08-13.92-24.06 8.18-9.73 17.58-17.7 30.22-21.02-2.3 9.89-4.45 19.76 5.68 27.04 0.53-0.01 1.06-0.03 1.59-0.04l-0.07-0.09 1.56 1.56-0.06-0.06c0.52 0.51 1.03 1.03 1.55 1.54l-0.06 0.01c0.49 1.04 0.68 2.49 1.5 3.07 15.64 11.14 32.07 20.04 52.15 19.75 23.28-0.34 35.13-13.06 30.77-35.89-2.48-13-8.1-25.39-12.3-38.06 27.23 8.26 50.3-2.16 72.47-16.28 5.1-3.25 9.85-7.06 14.77-10.61 9.41 3.79 18.52 8.84 28.29 11.12 21.27 4.97 33.83-3.68 37.46-25.16 1.56-9.25 1.31-18.8 1.88-28.22 10.26-7.11 21.11-13.82 26.44-25.73 4.64-10.35 8.33-21.12 12.34-31.75 1.31-3.49 1.96-7.25 3.51-10.61 3.22-6.99 6.64-7.59 11.6-1.67 2.25 2.69 3.14 6.51 4.65 9.81 0.4 8.73 0.69 17.22-3.42 25.63-1.49 3.06-0.24 9.67 2.23 11.8 2.41 2.09 8.07 1.1 12.12 0.41 2.47-0.42 4.47-3.12 6.92-4.3 12.18-5.87 11.87-16.66 3.24-24.71 18.16-14.64 23.43-35.4 26.8-56.94 1.49-9.51 2.19-19.14 3.25-28.71 1.56 4.99 3.12 9.98 4.68 14.97 0.52 12.04 1.05 24.08 1.57 36.13-2.68 15.19-3.58 30.2-0.83 45.72 1.68 9.46-0.57 19.61-1.05 29.45-3.02 3.23-5.62 7.05-9.15 9.57-12.45 8.9-25.16 17.43-37.87 25.96-14.34 9.63-26.25 20.67-24.67 40.06-6.7 11.83-13.39 23.65-20.09 35.48-1.44 2.03-2.89 4.06-4.33 6.09-0.47 0.54-0.93 1.08-1.4 1.62 0 0 0.04 0.02 0.04 0.01-2.06 0.78-4.59 1.04-6.1 2.42-17.05 15.55-38.06 20.32-60.07 23.21-12.6 1.65-24.41 5.61-34.26 14.88-8.14 7.67-17.92 13.18-29.18 15.9-18.94 4.58-37.67 8.06-57.5 5.4-13.86-1.86-28.21-3.96-42.16 1.2-8.4 3.11-17 5.67-25.49 8.55-25.58 8.67-51.39 10.07-77.9 4.15-14.73-3.29-29.97-4.24-44.87-6.86-15.13-2.66-30.52-4.83-45.09-9.44-20.83-6.6-37.83-20.61-55.99-32.35-8.47-5.48-17.88-10.07-27.49-13.11-14.64-4.63-30.04-6.84-44.7-11.42-16.58-5.18-33.58-10.6-46.62-22.64-16.98-15.67-32.81-32.57-49.32-48.76-4.5-4.41-9.67-8.13-14.53-12.17-8.87-5.64-17.75-11.27-26.62-16.91-11.84-8.4-17.53-19.75-16.36-34.38zm605.16 114.36c0.66 0.61 1.31 1.21 1.97 1.82 4.09-3.85 8.28-7.6 12.15-11.65 0.6-0.62 0.22-3.3-0.54-3.83-1.16-0.81-3.46-1.29-4.57-0.66-5.58 3.18-8.91 7.9-9.01 14.32zm-494.39-18.18c-3.58-2.51-5.95-4.42-8.6-5.8-0.46-0.24-3.2 2.45-3.04 2.76 1.42 2.57 3.08 5.13 5.2 7.1 0.38 0.35 3.28-2.03 6.44-4.06zm248.78 62.25c-1.09 1.12-2.19 2.23-3.28 3.35 2.65 2.59 5.29 5.18 7.94 7.76 1.09-1.12 3.19-3.16 3.12-3.24-2.47-2.73-5.14-5.28-7.78-7.87zm306.22-33.01 1.95 1.71c6.87-1.69 8.16-3.59 5.83-11.53-3.1 3.91-5.44 6.86-7.78 9.82zm-90.81 13.07c-2.41-1.98-3.92-3.61-5.79-4.47-0.42-0.19-3.23 2.73-2.95 3.5 0.82 2.24 2.64 4.12 4.07 6.13 1.28-1.42 2.58-2.84 4.67-5.16z"/> <path class="st15" d="m531.03 1005.5c3.38-1.13 6.75-2.27 10.13-3.4 5.22-1.28 10.43-2.67 15.68-3.81 9.19-1.99 10.46-1.06 11.95 8.27 1.8 5.03 3.6 10.06 5.41 15.1 3.13 6.54 6.26 13.07 9.39 19.61-0.22 0.94-0.43 1.87-0.65 2.81-6.44 2.95-12.64 7.14-19.4 8.44-4.65 0.89-11.59-0.64-14.85-3.82-10.12-9.85-18.98-20.99-28.33-31.64 3.56-3.85 7.12-7.7 10.67-11.56zm34.13 14.6c-2.93 2.58-5.98 5.04-8.65 7.86-0.46 0.48 0.7 2.49 1.11 3.79 1.27-0.46 3.24-0.57 3.68-1.44 1.6-3.23 2.7-6.71 3.98-10.1 0.19-0.22 0.38-0.44 0.57-0.66-0.24 0.18-0.47 0.36-0.69 0.55zm-22.2 4.96c0.88 0.13 1.76 0.27 2.63 0.4 0.62-4.45 1.23-8.9 2.09-15.08-9.49 4.57-3 10.44-4.72 14.68z"/> <path class="st6" d="m559.1 1164.2c-0.44-1.42-0.89-2.83-1.33-4.25 16.22-2.02 32.59-3.25 48.63-6.23 27.09-5.03 53.94-11.32 80.96-16.74 9.7-1.95 19.6-2.92 29.41-4.34 5.57-0.49 11.14-0.98 16.7-1.47 2.49 1.51 4.99 3.01 7.48 4.52-5.55 0.55-11.11 1.1-16.66 1.65-7.61 1.1-15.3 1.78-22.8 3.39-17.95 3.86-35.76 8.4-53.72 12.21-28.69 6.08-57.58 10.86-87.02 11.27-0.55 0-1.1 0-1.65-0.01z"/> <path class="st15" d="m589.1 1107.2c2.81-7.16 5.36-14.44 8.6-21.4 0.9-1.93 4.1-4.36 5.84-4.08 11.98 1.94 22.92 6.59 32.04 14.81 1.12 1.01 1.3 3.06 1.91 4.63-4.77 3.48-9.29 9.45-14.35 9.94-11.33 1.11-23.42 3.35-34.04-3.9z"/> <path class="st7" d="m536.65 1128.2c-2.27 0.8-4.5 1.81-6.84 2.36-3.02 0.71-6.81 2.32-6.53-3.45 0.1-1.12 0.2-2.23 0.31-3.35 20.46-11.11 42.85-6.37 64.48-7.88 12.03 5.65 24.6 3.47 36.88 1.74 4.77-0.67 9.1-4.43 13.64-6.78 0.79 1.25 1.87 2.4 2.3 3.77 0.77 2.4 2.23 5.44 1.37 7.26-0.82 1.75-4.21 3.2-6.48 3.21-25.79 0.2-51.58-0.12-77.36 0.22-7.27 0.1-14.51 1.89-21.77 2.9z"/> <path class="st16" d="m733.47 1131.2c-5.57 0.49-11.14 0.98-16.7 1.47-11.44-10.94-23.65-21.2-34.15-32.98-16.5-18.51-31.71-38.15-47.75-57.07-5.1-6.01-11.24-11.13-16.61-16.94-1.24-1.34-1.27-3.81-1.85-5.76 8.87 5.64 17.75 11.27 26.62 16.91 2.41 4.06 4.83 8.11 7.21 12.18 12.92 22.08 27.39 43.1 47.57 59.11 11.04 8.77 23.72 15.45 35.66 23.08z"/> <path class="st16" d="m582.94 1044c0.22-0.94 0.43-1.87 0.65-2.81 5.7 1.17 8.49 4.94 8.59 10.48 0.11 6.48-3.78 11.79-9.31 13.01-9.79 2.17-20.02 2.35-30.07 3.34-0.47 0.05-1.2-0.03-1.41-0.33-8.26-11.44-23.29-17.39-26.63-32.8 6.28 6.24 12.55 12.48 18.85 18.71 8.58 8.49 32.82 5.21 38.7-5.32 0.65-1.19 0.44-2.84 0.63-4.28z"/> <path class="st17" d="m582.94 1044c-0.19 1.43 0.02 3.09-0.64 4.27-5.88 10.54-30.11 13.82-38.7 5.32-6.29-6.23-12.56-12.47-18.85-18.71l-0.02 0.19c-0.51-1.13-1.02-2.27-1.53-3.4-0.95-4.89-1.89-9.79-2.84-14.68 9.35 10.64 18.2 21.79 28.33 31.63 3.26 3.17 10.2 4.71 14.85 3.82 6.76-1.3 12.96-5.49 19.4-8.44z"/> <path class="st18" d="m638.59 1110.9c-4.53 2.35-8.87 6.11-13.64 6.78-12.28 1.73-24.84 3.92-36.88-1.74 0.34-2.89 0.69-5.79 1.03-8.68 10.62 7.24 22.71 5.01 34.04 3.9 5.06-0.49 9.58-6.46 14.35-9.94 0.37 3.23 0.73 6.45 1.1 9.68z"/> <path class="st19" d="m574.2 1021.6c-1.8-5.03-3.61-10.06-5.41-15.1 0.53-1.02 1.07-2.05 1.6-3.07 0.55-0.06 1.09-0.11 1.64-0.17 0.73 6.12 1.45 12.23 2.17 18.34z"/> <path class="st20" d="m523.59 1123.8c-0.1 1.11-0.2 2.23-0.31 3.35-2.06-2.64-4.12-5.27-6.18-7.91 2.17 1.52 4.33 3.04 6.49 4.56z"/> <path class="st20" d="m508.14 1105.8c-0.52-1.03-1.04-2.06-1.55-3.09 0.51 1.03 1.03 2.06 1.55 3.09z"/> <path class="st16" d="m523.21 1031.7c0.51 1.13 1.02 2.27 1.53 3.4-0.51-1.13-1.02-2.27-1.53-3.4z"/> <path class="st20" d="m511.15 1111.8c-0.52-1.03-1.04-2.06-1.55-3.09 0.52 1.03 1.03 2.06 1.55 3.09z"/> <path class="st20" d="m500.63 1095.2c-0.51-1.02-1.03-2.05-1.54-3.07 0.51 1.03 1.02 2.05 1.54 3.07z"/> <path class="st20" d="m503.64 1099.8c-0.52-1.03-1.03-2.05-1.55-3.08 0.51 1.03 1.03 2.05 1.55 3.08z"/> <path class="st20" d="m497.63 1090.8c-0.52-1.03-1.03-2.05-1.55-3.08 0.52 1.03 1.03 2.05 1.55 3.08z"/> <path class="st20" d="m509.64 1108.8c-0.51-1.02-1.03-2.05-1.54-3.07 0.51 1.03 1.03 2.05 1.54 3.07z"/> <path class="st20" d="m517.15 1119.3c-0.51-1.02-1.03-2.05-1.54-3.07 0.51 1.02 1.03 2.04 1.54 3.07z"/> <path class="st20" d="m496.12 1087.7c-0.55-1.03-1.1-2.06-1.66-3.08 0.56 1.02 1.11 2.05 1.66 3.08z"/> <path class="st20" d="m502.15 1096.8-1.56-1.56 1.56 1.56z"/> <path class="st20" d="m505.15 1101.3-1.57-1.57c0.53 0.52 1.05 1.04 1.57 1.57z"/> <path class="st20" d="m506.67 1102.8-1.58-1.58 1.58 1.58z"/> <path class="st20" d="m512.66 1113.3-1.58-1.58c0.53 0.53 1.05 1.06 1.58 1.58z"/> <path class="st20" d="m514.16 1114.8c-0.52-0.52-1.04-1.04-1.57-1.56 0.52 0.52 1.05 1.04 1.57 1.56z"/> <path class="st20" d="m515.66 1116.3-1.56-1.56 1.56 1.56z"/> <path class="st20" d="m499.14 1092.2c-0.52-0.52-1.05-1.04-1.57-1.57l1.57 1.57z"/> <path class="st21" d="m772.49 1197.5v-4.51c10.46-1.58 20.92-3.16 31.37-4.75 14.27-2.26 28.54-4.51 44.51-7.04-14.5-4.79-26.98-10.36-40.05-12.78-11.63-2.15-23.91-0.81-35.9-1.01-2.44-0.44-4.97-1.55-7.3-1.22-21.89 3.1-43.79 6.2-65.6 9.82-16.43 2.73-32.78 5.99-49.08 9.46-16.99 3.63-33.86 7.8-50.79 11.73-0.96-1.4-1.92-2.81-2.89-4.22 0.51-0.53 1.02-1.07 1.53-1.6l0.03 0.03c2.41-0.51 4.82-1.07 7.24-1.53 50.59-9.56 101.19-19.1 151.79-28.65 9.08-1.52 18.15-3.04 27.23-4.56 1.67 0.45 3.32 1.2 5.01 1.3 30.06 1.67 57.18 12.46 83.77 25.75 14.43 7.21 29.52 14.43 45.13 17.71 45.14 9.47 90.27 7.79 134.52-6.3 15.61-4.97 31.39-7.63 47.86-6.78 16.93 0.88 33.97 2.02 50.85 1.11 17.6-0.94 35.36-3 51.22-12.16 4.46-2.57 9.09-4.86 13.64-7.28 4.16 3.1 8.32 6.19 12.48 9.29l-0.01 0.01h-24.35c0.03 0.99 0.06 1.99 0.09 2.98h81.78c0.04 0.72 0.09 1.44 0.13 2.16-1.55 0.28-3.09 0.76-4.65 0.8-20.45 0.55-40.91 0.98-61.36 1.61-2.91 0.09-5.88 0.81-8.67 1.7-23.31 7.37-46.76 13.99-71.56 13.23-12.2-0.37-24.39-1.06-36.59-1.46-16.73-0.54-32.89 1.63-49.39 5.53-32.31 7.62-65.3 12.33-97.95 18.56-10.39 1.98-20.6 4.94-30.89 7.45-5.49 0.06-10.98 0.11-16.46 0.17-0.53-1.07-1.06-2.15-1.59-3.22 0.47-0.83 0.79-2.24 1.43-2.4 5.24-1.33 10.54-2.41 15.82-3.6 5.07-1.14 10.13-2.32 15.19-3.49-1.07-1.95-1.93-2.22-2.79-2.46-14.45-4.05-29.21-7.22-43.24-12.41-11.8-4.36-22.73-11.08-34.07-16.69-1.99-0.98-4.31-2.56-6.2-2.24-12.62 2.16-25.16 4.75-37.72 7.21-14.49 1.59-29.01 3.17-43.52 4.75z"/> <path class="st22" d="m803.86 1188.2c-10.46 1.58-20.92 3.16-31.37 4.75-24.25 6.45-48.6 12.55-72.7 19.54-7.57 2.2-14.68 6.38-21.59 10.37-6.43 3.71-11.48 8.92-11.13 18.13-4.42-2.31-8.09-4.23-11.76-6.15-3.87-2.48-7.8-4.88-11.6-7.47-2.74-1.87-5.3-4.01-7.93-6.03l0.01-0.01c0.75-0.63 1.49-1.26 2.24-1.89l-3.75-1.11c-0.9-0.96-2.51-2.83-2.61-2.75-5.78 4.43-10.49 0.03-13.97-2.9-6.05-5.09-14.7-7.31-18.05-15.51 16.92-3.93 33.8-8.11 50.79-11.73 16.29-3.48 32.65-6.73 49.08-9.46 21.81-3.62 43.71-6.71 65.6-9.82 2.33-0.33 4.86 0.78 7.3 1.22 1.81 1.86 3.35 4.17 5.49 5.5 8.55 5.26 17.29 10.23 25.95 15.32z"/> <path class="st22" d="m757.37 1161.2c-50.6 9.55-101.19 19.09-151.79 28.65-2.42 0.46-4.83 1.01-7.24 1.53-2.52-0.53-5.05-1.07-7.57-1.6h-1.57l0.06 0.04c-1.02-0.51-2.05-1.03-3.07-1.54l0.07 0.05c-2.53-2.02-5.05-4.05-7.58-6.07l0.08 0.07-6.08-6.08 0.08 0.06c-1.03-0.52-2.07-1.04-3.1-1.56l0.1 0.08-1.59-1.59 0.09 0.09-1.59-1.59 0.08 0.08-1.58-1.58 0.08 0.08-1.57-1.57 0.05 0.06-3.05-3.05s0.03 0.04 0.03 0.04c0.02-0.53 0.03-1.05 0.05-1.58 29.44-0.41 58.33-5.19 87.02-11.27 17.96-3.81 35.77-8.35 53.72-12.21 7.5-1.61 15.19-2.29 22.8-3.4 1.94 1.91 3.64 4.17 5.85 5.68 8.98 6.18 18.13 12.14 27.22 18.18z"/> <path class="st20" d="m578.67 1182.3c2.53 2.02 5.05 4.05 7.58 6.07-2.53-2.03-5.06-4.05-7.58-6.07z"/> <path class="st20" d="m572.67 1176.3 6.08 6.08-6.08-6.08z"/> <path class="st0" d="m468.52 1016c-0.43 0.17-0.96 0.56-1.25 0.43-0.3-0.14-0.36-0.79-0.53-1.22 0.43-0.17 0.96-0.56 1.25-0.43 0.3 0.14 0.37 0.79 0.53 1.22z"/> <path class="st20" d="m560.66 1165.8 3.05 3.05c-1.01-1.02-2.03-2.03-3.05-3.05z"/> <path class="st22" d="m635.78 1221.4c-0.5-1-1-2.01-1.49-3.01 0.5 1 1 2 1.51 3l-0.02 0.01z"/> <path class="st20" d="m586.18 1188.3c1.02 0.51 2.05 1.03 3.07 1.54-1.02-0.51-2.04-1.02-3.07-1.54z"/> <path class="st20" d="m569.65 1174.8c1.03 0.52 2.07 1.04 3.1 1.56-1.03-0.52-2.07-1.04-3.1-1.56z"/> <path class="st20" d="m560.75 1164.2c-0.02 0.53-0.03 1.05-0.05 1.58-0.53-0.53-1.07-1.06-1.6-1.59 0.55 0.01 1.1 0.01 1.65 0.01z"/> <path class="st20" d="m563.66 1168.8 1.57 1.57c-0.52-0.52-1.04-1.05-1.57-1.57z"/> <path class="st20" d="m565.15 1170.3 1.58 1.58-1.58-1.58z"/> <path class="st20" d="m566.65 1171.8 1.59 1.59-1.59-1.59z"/> <path class="st20" d="m568.15 1173.3 1.59 1.59-1.59-1.59z"/> <path class="st20" d="m589.2 1189.8h1.57-1.57z"/> <path class="st22" d="m598.3 1191.4c-0.51 0.53-1.02 1.07-1.53 1.6 0.51-0.53 1.02-1.07 1.53-1.6z"/> <path class="st20" d="m629.85 754.49h-17.97c-0.26-0.54-0.52-1.08-0.77-1.62 13.4-8.33 26.31-17.61 40.31-24.79 22.84-11.72 46.35-22.13 69.66-32.93 2.87-1.33 6.21-1.67 9.33-2.47l0.05 0.06c-9.27 6.12-18.38 12.48-27.83 18.3-21.56 13.28-43.28 26.29-64.91 39.46-0.8 0.49-1.3 1.45-1.95 2.19-1.98 0.59-3.95 1.19-5.92 1.8z"/> <path class="st20" d="m524.04 840.69c8.26-10.52 15.66-21.89 24.97-31.37 16.06-16.35 33.38-31.45 50.03-47.23 7.78-7.38 17.47-4.33 26.53-5.67-35.7 26.04-71.21 51.95-99.55 86.25l-1.98-1.98z"/> <path class="st9" d="m754.84 691.54c-1.42-0.14-2.84-0.27-4.25-0.41 7.21-5.09 14.42-10.18 21.62-15.27v3.85c5.15 0.8 10.03 1.9 14.94 2.09 1.31 0.05 2.86-2.58 4.06-4.16 1.9-2.5 3.61-5.15 6.31-9.04 1.67 4.36 2.58 6.72 3.48 9.08-0.98 2.9-1.97 5.79-2.95 8.69-14.98-3.19-29.87-5.52-43.21 5.17z"/> <path class="st13" d="m596.77 819.5c1.23-13.86 7.04-16.26 19.12-7.91-3.95 8.48-11.21 8.97-19.12 7.91z"/> <path class="st19" d="m629.85 754.49c1.97-0.6 3.94-1.2 5.91-1.81 8.57 1.54 17.13 3.08 25.7 4.62-0.99 1.54-1.99 3.07-2.99 4.61-8.25-1.54-16.52-2.98-24.73-4.7-1.42-0.3-2.6-1.79-3.89-2.72z"/> <path class="st7" d="m596.77 819.5c7.9 1.05 15.17 0.57 19.12-7.91 1.49 1.62 2.97 3.24 4.46 4.86-5.17 2.65-10.13 6-15.6 7.6-2.04 0.6-5.28-2.91-7.98-4.55z"/> <path class="st9" d="m782.31 668.24c-0.28 2.14-0.55 4.28-0.83 6.42l-0.01 0.01c-3.08 0.42-6.17 0.84-9.25 1.26 3.36-2.56 6.73-5.12 10.09-7.69z"/> <path class="st20" d="m730.39 692.67c0.53-0.38 1.05-0.75 1.6-1.1 0.01-0.01 0.26 0.35 0.39 0.53-0.65 0.21-1.3 0.42-1.94 0.62l-0.05-0.05z"/> <path class="st9" d="m1283.9 907.26c-4.21 2.54-8.45 5.03-12.61 7.64-19.39 12.15-38.83 24.21-58.1 36.55-12.37 7.92-24.59 16.08-36.57 24.58-3.1 2.2-5.75 5.71-7.41 9.19-13.8 28.95-38.9 42.36-68.23 49.8-10.35 2.63-21.17 3.55-31.34 6.68-6.66 2.05-13.77 5.48-18.53 10.38-15.44 15.9-34.32 19.08-54.95 17.31-14.34-1.23-28.62-3.51-42.97-4.09-15.39-0.62-29.81-3.53-41.87-13.43-5.7-4.68-11.44-10.03-15.17-16.26-8.97-14.98-22.11-21.89-38.81-24.46-19.44-2.99-37.48-10.55-53.86-21.15-13.09-8.48-24.78-19.11-37.56-28.11-5.58-3.93-12.1-6.93-18.61-9.03-28.88-9.31-52.24-27.47-75.41-46.03-5.82-4.66-11.72-9.23-17.79-13.55-12.34-8.78-17.88-20.35-15.31-35.5 2.32-13.7 4.71-27.38 6.93-41.09 2.91-17.98 12.75-32.86 21.64-48.1 4.51-7.73 8.98-15.87 15.16-22.16 7.76-7.89 16.79-14.8 26.11-20.83 14-9.05 28.72-16.97 43.14-25.37-0.73 4.52-1.46 9.04-2.19 13.55-2.81 7.12-6.93 14.04-8.02 21.41-0.93 6.23 0.62 13.38 2.96 19.39 2.52 6.47 9.95 7.95 14.83 4.43 4.32 5.77 9.78 9.19 17.29 8.34 12.3 1.25 24.38 0.92 35.97-4.19 15.13-6.67 27.44-15.48 27.46-34.27 0-1.36 0.83-2.81 1.54-4.07 6.12-10.92 5.05-18.54-3.55-27.42-7.33-7.57-16.65-10.57-26.61-12.33 0.93-1 1.75-2.15 2.81-2.99 7.78-6.14 18.23-6.23 26.17-13.21 16.47-14.46 35.83-24.15 57.79-27.98 2.28-0.4 4.27-2.47 6.39-3.77 6.77-10.83 16.08-6.8 25.52-4.98 6.24 1.2 12.9 0.05 19.32 0.61 3.19 0.28 6.25 2.07 9.36 3.17-0.65 1.91-2.33 4.98-1.75 5.5 1.66 1.47 4.54 2.95 6.39 2.44 1.82-0.5 2.97-3.43 4.41-5.3 10.71-1.65 21.41-3.42 32.15-4.91 6.38-0.88 12.83-2.01 19.22-1.84 17.34 0.47 34.8 0.52 51.95 2.78 13.16 1.74 26.01 6.26 38.82 10.16 7.84 2.38 15.33 5.92 22.97 8.93-2.96 4.01-1.57 7.58 1.66 10.35 1.65 1.42 4.21 1.79 6.35 2.63 0.88-2.87 1.76-5.75 2.64-8.62 8.3 3.7 16.55 7.51 24.94 10.98 1.48 0.61 3.86 0.34 5.29-0.47 5-2.81 9.82-5.95 14.59-9.16 1.69-1.13 3.02-2.8 4.51-4.23 1.74-4.44 3.88-6 7.64-1.57 1.66 1.95 4.04 3.3 6.09 4.92-13.93 9.88-22.4 23.92-29.24 39.06-2.94 6.5-1.04 11.63 5.76 13.86 20.32 6.66 41.1 11.38 62.48 6.21 5.68-1.37 10.58-5.97 15.83-9.09 13.32 8.54 26.35 17.58 40.04 25.5 21.32 12.34 31.59 30.81 32.58 54.91 0.56 13.73-0.57 27.27-5.68 40.24-0.52 1.32-0.25 2.95-0.35 4.44-3.48-0.22-6.97-0.38-10.45-0.66-16.03-1.28-31.96-1.35-47.41 4.05-8.58 3-12.15 7.66-10.31 16.47 2.13 10.17 5.79 20.01 8.78 30 5.04 7.94 10.11 15.85 15.18 23.76zm-554.75-142.6-1.98-1.71c-6.02-5.42-12.57-7.64-20.35-3.73-6.39 3.22-14.62 18.69-12.89 25.67 0.96 3.89 3.29 7.44 5.01 11.15 13.43 3.08 26.35 0.54 38.7-4.51 8.14-3.32 10.14-13.56 4.05-19.14-3.6-3.3-8.31-5.4-12.52-8.03l-0.02 0.3zm160.31-77.78-0.11-0.06c2.92 3.35 6.24 6.44 8.69 10.12 4.48 6.71 10.8 7.64 17.74 6.15 10.2-2.19 18.23-7.96 23.61-16.87 4.94-8.19 2.63-14.49-6.1-18.33-8.76-2.61-17.36-6.11-26.3-7.59-10.57-1.75-17.66 3.84-18.88 12.9 0.44 4.56 0.89 9.12 1.35 13.68zm192.25 256.07c-0.93-0.39-1.86-0.79-2.8-1.18-6.82-4.92-13.59-3.91-20.03 0.57-3.66 2.55-6.92 5.68-10.36 8.54-13.11 4.29-22.87 12.92-30.22 24.23-8.26 12.71-4.02 26.63 9.7 32.95 1.13 0.52 2.84-0.22 4.29-0.37 20.62 11.96 42.59 12.72 65.19 7.66 15.1-3.38 16.55-5.51 15.28-20.82 1.47-1.09 4.07-2.05 4.22-3.3 0.74-6.25 2.45-13.02 0.84-18.79-4.27-15.33-15.7-24.81-29.95-30.89-1.57-0.67-4.08 0.88-6.16 1.4zm-199.85-162.83c4.4 3.47 8.39 7.77 13.3 10.2 5.91 2.92 12.96 3.9 18.14-1.61 5.09-5.42 6.67-12.16 3.24-19.37-4.1-8.99-12.79-13.67-22.15-11.93-12.24 2.27-17.9 12.55-12.53 22.71zm270.34 47.97c-4.45-2.13-8.91-4.25-13.36-6.38l-0.58 0.08c-0.73-0.35-1.47-0.7-2.2-1.05-1.01-0.34-2.02-0.68-3.03-1.02-3.86-3.77-7.63-4.95-12.91-1.78-19.7 11.84-31.55 29.62-38.84 50.74-1 2.91 1.08 6.88 1.74 10.35 4.26 4.25 7.85 9.81 12.95 12.43 6.72 3.45 14.63 4.59 22.03 6.72 1.93 0.37 3.86 0.75 5.79 1.12l1.71 0.36c10.42 0.65 20.83 1.75 31.25 1.81 7.41 0.04 13.45-3.5 16.91-10.51 17.84-3.24 23.72-11.44 20.12-27.1-3.66-15.9-24.57-32.76-41.58-35.77zm-301.49 146.75c9.19 9.83 19.71 13.73 32.55 7.33 3.18 1.08 6.6 3.49 9.49 2.97 6.73-1.22 13.64-3 19.7-6.08 13.56-6.89 21.65-21.08 18.74-34.34-2.16-9.83-6.3-19.35-10.57-28.53-3.01-6.48-6.97-6.37-11.63-1.03-13.92-5.36-28.17-8.97-43.19-6.28-10.8 1.93-22.17 3.41-25.85 16.62-0.4 8.01-0.8 16.01-1.2 24.02-1.04 1.54-2.78 3-2.99 4.65-0.97 8.03 6.7 18.4 14.95 20.67zm375.41-196.99c-5.02-2.07-9.97-4.34-15.07-6.16-7.55-2.69-15.02-1.83-21.07 3.32-5.83 4.97-2.48 11.48-1.09 17.4 0.33 1.41 1.21 2.7 1.83 4.05 2.17 5.26 3.63 10.98 6.67 15.68 5.8 8.97 15.63 9.36 22.53 1.21 6.61-7.82 10.33-17.09 10.53-27.32 0.05-2.7-2.81-5.45-4.33-8.18zm-261.59 119.68c13.22 4.03 25.84 4.35 37.2-5.26 20.09-16.99 17.57-40.66 2.6-58.19-4.2-4.92-10.53-8.04-15.88-11.98-6.86-6.92-13.82-13.04-24.89-9.36-19.29 6.42-34.44 18.07-45.07 35.3-6.8 11.03-5.91 20.29 4.5 27.74 10.61 7.6 22.76 13.05 34.24 19.44 2.43 0.77 4.87 1.54 7.3 2.31zm-193.47-42.81-0.87-1.47c-4.26-3.62-7.96-8.54-12.86-10.63-20.36-8.72-41.07-8.21-61.42 0.42-2.39 1.01-3.98 3.9-5.94 5.92-0.2 6.8-1.96 14.01-0.31 20.33 4.31 16.44 13.4 30.46 25.78 42.23 5.85 5.56 12.59 8.88 20.91 8.11 2.11 2.22 3.89 5.8 6.4 6.42 8.35 2.07 16.83 2.23 24.24-3.49 14.3-11.05 21.81-32.93 16.84-50.49-2.03-7.17-4.66-14.35-12.73-17.28l-0.04-0.07zm238.16-137.78c4.15 5.42 7.44 11.95 12.65 16.01 7.75 6.04 16.86 10.35 25.38 15.39 1.29 1.37 2.35 3.14 3.91 4.05 18.47 10.76 36.18 5.8 52.98-3.79 6.96-3.98 11.68-10.48 10.91-19.88-1.25-15.38-9-25.98-22.17-33.18-6.32-15.67-14.18-19.91-30.65-16.21-4.55 1.02-8.96 2.68-13.44 4.04-11.7-4.75-23.53-4.17-34.74 0.83-13.56 6.05-15.64 22.22-4.83 32.74zm-54.09 333.66c17.89-1.22 23.56-10.31 15.17-25.26-2.81-5-5.84-9.92-9.29-14.49-5.42-7.17-12.8-7.44-19.12-0.94-4.69 4.83-9.22 9.82-13.72 14.82-5.86 6.5-5.66 12.67 2.04 16.68 7.78 4.06 16.56 6.2 24.92 9.19zm-94.78-213.67c-16.17 0.32-23.48 7.07-23.26 21.48 0.14 9.28 5.78 14.44 15.48 14.17 11.72-0.33 20.42-10.3 20.25-23.2-0.11-8.18-4.55-12.61-12.47-12.45zm330.56-91.8c3.02-1.95 6.14-3.95 9.25-5.96-2.08-3.06-4.06-6.2-6.32-9.13-0.69-0.89-2.14-1.22-3.26-1.76-4.78-2.27-10.57-5.53-14.07 0.18-3.36 5.49 2.03 9.59 5.95 12.9 1.94 1.64 4.78 2.19 8.45 3.77zm-178.98 304.17c5.3-2.35 10.3-4 14.58-6.76 1.66-1.07 2.92-5.17 2.16-6.92-0.75-1.71-4.69-3.5-6.57-2.95-4.67 1.36-9.13 3.75-13.32 6.31-1.57 0.96-3.47 4.24-2.93 5.19 1.15 2.08 3.77 3.33 6.08 5.13zm261.97-281.54c1.13-1.1 3.67-3.56 6.21-6.03-4.79-3.9-9.58-7.81-14.37-11.71-1.71 2.12-4.55 4.08-4.91 6.41-0.85 5.59 4.89 11.31 13.07 11.33zm-272.74-4.33c-2.76-4.07-4.35-6.43-5.95-8.79-2.25 1.58-5.03 2.75-6.62 4.83-2.09 2.72-3.47 6.08-4.69 9.33-0.62 1.66-0.97 4.44-0.07 5.38 1.06 1.09 4.4 1.67 5.41 0.84 4.12-3.39 7.73-7.41 11.92-11.59zm33.65 132.02c-3.6-2.9-5.6-5.88-7.54-5.83-7.73 0.16-7.35 7.15-8.13 12.14-0.33 2.12 2.77 4.78 4.3 7.2 3.42-4.07 6.84-8.13 11.37-13.51zm-223.2-89.33c4.5-3.52 9.2-7.01 13.62-10.83 0.65-0.56 0.52-3.16-0.19-3.91-1.01-1.05-3.33-2.14-4.35-1.65-4.68 2.21-9.26 4.73-13.49 7.69-1.09 0.76-1.45 3.74-0.92 5.28 0.41 1.22 2.69 1.82 5.33 3.42zm225.5 7.05c5.71 8.77 15.15 11.05 20.78 6.92 1.36-1 2.78-3.34 2.51-4.74-0.28-1.45-2.58-3.58-3.98-3.57-5.91 0.04-11.8 0.78-19.31 1.39zm-246.48 10.76c-0.7 1.09-2.71 2.83-2.85 4.72-0.34 4.53 6.45 11.7 10.5 10.7 2.3-0.57 5.04-3.82 5.52-6.27 0.84-4.25-6.31-9.4-13.17-9.15zm197.34-158.33c-6.58 0.15-11.75 5.78-11.23 11.28 0.17 1.83 2.05 4.75 3.49 4.98 4.62 0.74 11.75-7.11 11.03-12.12-0.25-1.79-2.56-3.28-3.29-4.14zm323.83 124.63c-5.65 8.29-3.8 15.08-2.49 21.71 0.19 0.98 2.35 2.37 3.35 2.2 1.33-0.23 3.06-1.58 3.53-2.85 2.62-7.18-0.51-13.16-4.39-21.06zm-93.15 78.74c-4.75 3.29-6.73 13.9-3.28 17.96 2.4 2.83 4.44 2.44 6.3-0.75 2.89-4.96 1.61-12.63-3.02-17.21zm-410.94 82.79c-2.88-4.07-4.7-6.64-6.53-9.22-2.03 3.88-4.59 7.6-5.78 11.72-0.4 1.38 2.74 3.77 4.26 5.71 2.42-2.46 4.84-4.93 8.05-8.21zm-126.16-71.98c-2.74-3.13-4.39-5.02-6.04-6.9-2.22 3.45-5.06 6.68-6.34 10.45-0.47 1.37 2.79 4 4.34 6.05 2.43-2.9 4.86-5.8 8.04-9.6zm-4.03-46.19c-3.86-3.12-6.37-5.15-8.89-7.19-1.47 2.14-4.43 4.58-4.08 6.36 0.59 3.01 3.27 5.62 5.07 8.39 2.1-2 4.2-4.02 7.9-7.56zm395.27-179.09c-0.35-0.95-0.69-1.9-1.04-2.84-4.65 1.58-9.34 3.05-13.91 4.86-0.68 0.27-1.37 2.6-0.96 3.12 0.95 1.21 2.55 2.64 3.92 2.68 5.74 0.14 9.63-2.84 11.99-7.82zm-112.47 71.52c-4.31-3.08-7.03-5.53-10.2-6.98-0.92-0.42-3.15 2.07-4.78 3.22 2.64 2.44 5.06 5.24 8.06 7.11 0.87 0.55 3.4-1.57 6.92-3.35zm-287.72 58.37c-2.74 2.75-5.31 4.4-6.24 6.72-0.36 0.9 3.36 4.94 4.48 4.65 2.38-0.61 4.8-2.81 6.09-5.01 0.47-0.79-2.28-3.46-4.33-6.36zm513.87 146.06c-3.34 3.38-5.94 6.01-8.53 8.65 1.37 0.95 3.47 3.01 4 2.66 2.84-1.86 5.37-4.25 7.75-6.7 0.19-0.2-1.58-2.29-3.22-4.61zm-195.53 18.66c-4.05-2.93-6.37-4.94-9.03-6.25-0.52-0.26-2.38 2.2-3.62 3.4 2 1.99 3.79 4.34 6.13 5.78 0.79 0.5 2.98-1.26 6.52-2.93zm146.8-194.71c1.81-2.73 4.02-5.37 3.72-5.7-1.69-1.84-3.84-3.61-6.17-4.32-0.81-0.25-3.93 3.45-3.65 3.91 1.24 2.01 3.33 3.51 6.1 6.11z"/> <path class="st10" d="m1193 655.2c-1.49 1.42-2.82 3.09-4.51 4.23-4.77 3.2-9.59 6.34-14.59 9.16-1.43 0.81-3.81 1.08-5.29 0.47-8.39-3.47-16.64-7.28-24.94-10.98-3.55-1.45-7.1-2.91-10.65-4.36-7.65-3.02-15.14-6.55-22.97-8.93-12.81-3.89-25.66-8.42-38.82-10.16-17.14-2.26-34.61-2.31-51.95-2.78-6.39-0.17-12.85 0.95-19.22 1.84-10.74 1.49-21.43 3.26-32.15 4.91-1.07-0.97-2.13-1.94-3.19-2.92 4.02-8.48 12.8-9.61 20.12-11.16 19.31-4.08 38.84-8.27 58.47-9.48 23.04-1.41 44.96 5.44 66.52 13.97 17.89 7.08 36.8 11.57 55.23 17.28 9.33 2.87 18.63 5.93 27.94 8.91z"/> <path class="st10" d="m904.63 637.13c-2.12 1.3-4.11 3.37-6.39 3.77-21.96 3.83-41.32 13.52-57.79 27.98-7.95 6.98-18.39 7.07-26.17 13.21-1.06 0.84-1.88 1.98-2.81 2.99-1.48-0.05-2.96-0.09-4.44-0.14-0.51 0.01-1.03 0.02-1.54 0.03-1 0.94-2 1.88-3.01 2.81-1.47-0.47-2.95-0.94-4.42-1.41 0.98-2.9 1.97-5.79 2.95-8.69 1.51-3 3.01-6.01 4.52-9.01 1-1 1.99-2 2.99-3.01 5.45-5.62 10.75-11.4 16.44-16.77 2.05-1.94 5.03-2.88 7.59-4.28 1.51-0.99 3.02-1.97 4.53-2.96 22.51-1.51 45.03-3.01 67.55-4.52z"/> <path class="st18" d="m964.7 635.66c1.06 0.97 2.13 1.94 3.19 2.92-1.44 1.87-2.59 4.8-4.41 5.3-1.85 0.51-4.73-0.97-6.39-2.44-0.59-0.52 1.1-3.6 1.75-5.5 1.95-0.1 3.9-0.19 5.86-0.28z"/> <path class="st9" d="m808.52 665.66c-1 1-1.99 2-2.99 3.01l-2.16-1.92c1.71-0.36 3.43-0.72 5.15-1.09z"/> <path class="st9" d="m837.07 641.65c-1.51 0.99-3.02 1.97-4.53 2.96-0.25-3.68 1.03-5.02 4.53-2.96z"/> <path class="st9" d="m781.48 674.66c0.21 0.12 0.41 0.23 0.62 0.35-0.21-0.11-0.42-0.22-0.63-0.34 0 0.01 0.01-0.01 0.01-0.01z"/> <path class="st16" d="m1396.9 866.84c-5.43-10.46-10.87-20.91-16.3-31.37 4.57-0.53 9.13-1.06 13.7-1.59 10.98 13 23.03 25.28 28.63 41.96-2.74 0.03-5.49-0.03-8.23 0.11-6.98 0.36-14.2 1.28-15.74-8.5-0.05-0.3-1.35-0.41-2.06-0.61z"/> <path class="st19" d="m1403.6 923.91c-0.52-12.04-1.05-24.08-1.57-36.13 0.74-2.24 1.47-4.48 2.45-7.44h24.07c4.28 9.44 8.61 18.86 12.79 28.35 1.09 2.47 1.72 5.13 2.56 7.71-9.61 0.53-19.25 0.74-28.82 1.69-7.3 0.72-10-2.03-8.87-9.09 0.14-0.9-0.16-1.88-0.78-2.81-0.62 5.9-1.23 11.81-1.83 17.72z"/> <path class="st5" d="m608.63 899.98c4.27 1.59 10.2 1.93 12.52 5 8.47 11.21 16.75 22.8 23.13 35.26 5.11 9.99 0.98 17.15-11.15 25.91-14.14-2.02-26.14-7.71-34.54-19.8-0.56-0.81-2.18-0.89-3.31-1.3-0.01-4.01-0.03-8.03-0.04-12.04 0.5-2 1-4.01 1.5-6.01 3.58-9.04 7.15-18.08 10.73-27.12 0.39 0 0.78 0.03 1.16 0.1z"/> <path class="st23" d="m1204.9 692.69c-9.14 0.06-10.44-1.59-6.75-9.93 2.2-4.98 5.09-9.7 8.05-14.29 2.77-4.3 6.7-5.88 11.56-3.13 4.75 2.68 7.62 6.27 6.11 12.18-2.66 10.36-8.5 15.1-18.97 15.17z"/> <path class="st4" d="m609.49 895.41c-0.2 0.57-0.4 1.14-0.6 1.72 0.19-0.58 0.4-1.15 0.6-1.72z"/> <path class="st20" d="m813.09 1291.3c1.48-0.26 2.96-0.52 4.43-0.78 1.09 0.5 2.14 1.3 3.28 1.45 23.17 3.14 46.3 6.71 69.54 9.14 24.26 2.54 48.62 5.02 72.98 5.61 28.46 0.7 56.98-0.38 85.45-1.24 16.18-0.48 32.47-1.09 48.47-3.35 28.81-4.06 57.43-9.48 86.18-14.04 1.77-0.28 3.95 2.01 5.95 3.11-0.33 0.71-0.66 1.41-0.99 2.12-17.14 3.18-34.2 6.86-51.43 9.43-19.68 2.94-39.45 6.09-59.28 7.03-38.65 1.84-77.39 3.33-116.07 2.79-26.56-0.37-53.15-3.76-79.59-6.98-21.71-2.65-43.21-7.01-64.8-10.67-1.45-0.25-2.84-0.91-4.26-1.37l0.01-0.03c0.05-0.74 0.09-1.48 0.13-2.22z"/> <path class="st20" d="m1326.7 1236.8c6.41-1.05 12.83-2.1 19.24-3.15-4.65 2.91-9.04 6.41-14.01 8.61-23.21 10.3-46.58 20.24-69.89 30.3-1.12-0.66-2.51-2.12-3.33-1.85-19.95 6.44-39.82 13.1-59.75 19.62-2.31 0.76-4.81 0.95-7.22 1.41-1.6-5.52 2.56-6.21 6.15-7.08 32.2-7.75 63.46-18.31 93.84-31.44 11.81-5.1 23.32-10.92 34.97-16.42z"/> <path class="st19" d="m925.66 1231.9c10.29-2.51 20.5-5.47 30.89-7.45 32.65-6.22 65.64-10.94 97.95-18.56 16.5-3.89 32.66-6.07 49.39-5.53 12.2 0.4 24.39 1.09 36.59 1.46 24.8 0.75 48.25-5.86 71.56-13.23 2.8-0.88 5.76-1.61 8.67-1.7 20.45-0.63 40.91-1.06 61.36-1.61 1.56-0.04 3.1-0.52 4.65-0.8-0.04-0.72-0.09-1.44-0.13-2.16h-57.55c0.01-0.99 0.02-1.99 0.02-2.98l0.01-0.01c9.23-3.39 18.78-6.1 27.61-10.32 12.91-6.17 25.29-13.42 37.9-20.22 0.44-0.24 1.02-0.36 1.3-0.72 7.86-10.12 19.03-7.79 29.53-7.79 22.5-0.01 45 0.08 67.49 0.13-0.48 1.36-0.55 3.16-1.49 4-8.32 7.42-16.8 14.67-25.23 21.98-6.63 5.76-13.25 11.53-19.87 17.29-8.58-0.8-17.13-4.01-25.87 0.24 5.59 1.01 11.18 2.01 16.78 3.02-0.51 1.1-0.71 2.72-1.56 3.21-19.19 11.12-38.46 22.08-57.66 33.19-1.53 0.89-2.57 2.62-3.84 3.96-19.79-1.43-39.55-3.38-59.36-4.12-13.38-0.5-26.87 0.13-40.23 1.27-16.77 1.43-33.45 3.9-50.17 5.93-24.83 3-49.67 5.96-74.49 9.03-19.41 2.41-38.8 4.97-58.2 7.46-5.11-1.49-10.15-3.3-15.34-4.42-16.86-3.65-33.79-7.05-50.71-10.55zm389.51-47.67c-0.01-0.73-0.01-1.45-0.02-2.18h-15.1c0.01 0.73 0.01 1.45 0.02 2.18h15.1z"/> <path class="st24" d="m1216.6 1170c-4.55 2.42-9.18 4.7-13.64 7.28-15.87 9.16-33.62 11.22-51.22 12.16-16.89 0.9-33.92-0.23-50.85-1.11-16.47-0.85-32.24 1.81-47.86 6.78-44.25 14.09-89.38 15.77-134.52 6.3-15.62-3.28-30.7-10.49-45.13-17.71-26.59-13.29-53.7-24.08-83.77-25.75-1.69-0.09-3.34-0.85-5.01-1.3-14.55-6.99-29.1-13.97-43.64-20.96-2.49-1.51-4.99-3.01-7.48-4.52-11.94-7.62-24.62-14.31-35.67-23.07-20.18-16.01-34.65-37.04-47.57-59.11-2.38-4.07-4.81-8.12-7.21-12.18 4.86 4.04 10.03 7.76 14.53 12.17 16.51 16.18 32.34 33.09 49.32 48.76 13.04 12.03 30.04 17.46 46.62 22.64 14.66 4.58 30.06 6.78 44.7 11.42 9.6 3.04 19.01 7.63 27.49 13.11 18.16 11.74 35.16 25.75 55.99 32.35 14.57 4.61 29.96 6.79 45.09 9.44 14.9 2.62 30.14 3.57 44.87 6.86 26.51 5.92 52.32 4.52 77.9-4.15 8.49-2.88 17.09-5.44 25.49-8.55 13.95-5.16 28.3-3.06 42.16-1.2 19.83 2.66 38.56-0.83 57.5-5.4 11.26-2.72 21.05-8.23 29.18-15.9 9.84-9.27 21.66-13.23 34.26-14.88 22.01-2.89 43.02-7.66 60.07-23.21 1.51-1.38 4.04-1.64 6.1-2.42-7.92 7.39-15.66 14.98-23.8 22.13-13.69 12.03-29.02 20.69-47.47 23.53-5.68 0.84-10.97 4.25-16.43 6.49z"/> <path class="st0" d="m1457.3 1018.6c12.72-2.99 25.42-6.07 38.16-8.94 11.76-2.65 23.57-5.09 35.36-7.63-0.01 2.24 0.39 4.58-0.09 6.71-5.95 26.39-14.54 51.75-29.78 74.43-20.25 1-40.5 2.02-60.75 2.92-1.33 0.06-2.7-0.87-4.05-1.34 4.9-13.29 10.24-26.45 14.52-39.93 2.54-7.98 3.42-16.48 5.04-24.75l0.06-0.03c0.52-0.48 1.03-0.96 1.53-1.44z"/> <path class="st16" d="m1401.7 1134.3c-3.93-0.51-7.86-1.45-11.79-1.47-25.02-0.14-50.04-0.07-75.42-0.07 5.19-8.38 10.49-16.24 15.01-24.51 3.06-5.6 5.84-11.6 7.26-17.77 1.26-5.47 4.2-6.05 8.56-5.81 26.85 1.5 53.69 2.97 80.54 4.44 2 0.11 4 0.07 6.01 0.1-0.74 1.54-1.28 3.21-2.24 4.6-9.27 13.53-18.61 27.01-27.93 40.49z"/> <path class="st16" d="m1455.8 1020.1c-1.62 8.27-2.5 16.77-5.04 24.75-4.29 13.49-9.63 26.64-14.52 39.93-30.04-1.97-60.07-3.94-92.38-6.06 5.99-4.5 10.75-8.85 16.2-12.01 17.82-10.36 34.76-21.59 46.49-39.17 0.93-1.4 3.1-2.57 4.81-2.77 14.79-1.7 29.62-3.14 44.44-4.67z"/> <path class="st22" d="m1346.3 1183.7c6.62-5.76 13.24-11.53 19.87-17.29 8.42-7.31 16.9-14.56 25.23-21.98 0.94-0.84 1.01-2.64 1.49-4 19.4-0.57 38.79-1.17 58.19-1.66 2.71-0.07 5.44 0.4 8.16 0.62-1.53 2.46-2.61 5.43-4.67 7.3-16.63 15.07-33.45 29.94-50.21 44.87-17.39-2.56-34.79-5.12-52.19-7.68-1.97-0.06-3.92-0.12-5.87-0.18z"/> <path class="st0" d="m1401.7 1134.3c9.32-13.49 18.66-26.96 27.93-40.49 0.95-1.39 1.5-3.06 2.24-4.6 22.07-0.45 44.15-0.9 66.22-1.35-1.04 2.21-1.76 4.65-3.18 6.59-10.44 14.32-21.02 28.53-31.55 42.78-6.04-0.99-12.06-2.65-18.12-2.83-14.51-0.39-29.03-0.1-43.54-0.1z"/> <path class="st19" d="m1455.9 963.12c0.49 13.75 0.99 27.5 1.44 41.25 0.11 3.23 0.01 6.47 0.01 9.7-12.81 1.51-25.62 3.08-38.44 4.5-2.68 0.3-5.42 0.04-8.18 0.04 0.9-8.57 2.34-16.58 2.42-24.61 0.08-7.87-1.23-15.76-1.99-24.26 14.97-2.22 29.86-4.42 44.74-6.62z"/> <path class="st19" d="m1446.8 920.98c2.99 12.06 5.99 24.13 8.98 36.19-14.91 2.86-29.83 5.72-47.06 9.03-1.03-15.46-1.93-28.95-2.89-43.32 14.38-0.67 27.68-1.29 40.97-1.9z"/> <path class="st20" d="m1463.3 1137.2c10.53-14.25 21.11-28.46 31.55-42.78 1.41-1.94 2.13-4.38 3.18-6.59 0.98-1.56 1.96-3.13 2.94-4.69 15.25-22.68 23.83-48.04 29.79-74.43 0.48-2.14 0.08-4.47 0.09-6.71 1.53-1.08 3.05-2.16 4.58-3.24-1.63 24.32-9.27 47.03-18.76 69.19-3.02 7.04-6.83 13.74-10.29 20.59-9.9 14.32-19.7 28.73-29.8 42.91-1.71 2.4-4.77 3.84-7.21 5.73-0.07-0.2-0.13-0.41-0.2-0.61-0.16 0.15-0.31 0.3-0.47 0.45 0.2 0.07 0.4 0.15 0.6 0.22-6.21 7.85-12.3 15.81-18.69 23.51-3.62 4.36-7.72 8.32-11.61 12.46-10.95 8.59-21.89 17.17-32.84 25.75l-1.8-7.47c16.76-14.93 33.58-29.8 50.22-44.87 2.07-1.87 3.14-4.84 4.67-7.3 1.35-0.69 2.7-1.4 4.05-2.12z"/> <path class="st24" d="m1330.1 1074.7c-1.58-19.39 10.33-30.43 24.67-40.06 12.7-8.53 25.42-17.06 37.87-25.96 3.53-2.52 6.12-6.34 9.15-9.57-5.3 21.5-16.99 38.3-35.79 50.38-12.3 7.9-23.96 16.78-35.9 25.21z"/> <path class="st24" d="m1305.6 1116.2c1.44-2.03 2.89-4.06 4.33-6.09-1.44 2.03-2.88 4.06-4.33 6.09z"/> <path class="st16" d="m1457.3 1018.6c-0.51 0.48-1.01 0.96-1.52 1.43 0.51-0.47 1.02-0.95 1.52-1.43z"/> <path class="st24" d="m1304.2 1117.9c0.47-0.54 0.93-1.08 1.4-1.62-0.47 0.54-0.93 1.08-1.4 1.62z"/> <path class="st22" d="m772.49 1197.5c14.51-1.58 29.03-3.15 43.54-4.73 24.57 9.99 49.17 19.92 73.7 30.01 4.09 1.68 7.91 4.03 11.86 6.06l-2.94 0.15c-7.57 1.23-15.12 2.57-22.71 3.68-22.29 3.29-44.68 6.04-66.88 9.86-19.51 3.36-38.91 7.48-58.15 12.15-4.76 1.15-8.68 5.74-12.99 8.75l0.01-0.01c-0.52 1.51-1.05 3.02-1.57 4.54-0.5 0-1.01 0.01-1.51 0.01-4.5-1-9-1.99-13.49-2.99l0.02 0.03c-2.01-1.01-4.01-2.01-6.02-3.02h0.01c-3.01-1-6.01-2.01-9.02-3.01l0.02 0.01c-1.12-0.51-2.23-1.01-3.35-1.52-8.48-3.54-17.05-6.87-25.4-10.7-7.09-3.25-9.01-12.34-2.66-16.81 7.81-5.5 16.62-10.37 25.73-13.08 22.61-6.73 45.63-12.06 68.48-17.99 1.14-0.31 2.21-0.92 3.32-1.39z"/> <path class="st23" d="m747.04 1274c-3.56-0.51-7.11-1.02-10.67-1.53-0.61-0.85-1.23-1.69-1.84-2.54l0.47-0.56c4.02 1.54 8.03 3.08 12.04 4.63z"/> <path class="st23" d="m721.35 1265c4.5 1 9 1.99 13.49 2.99 0.08 0.45 0.14 0.91 0.17 1.37 0 0-0.47 0.55-0.47 0.56-4.4-1.64-8.8-3.28-13.19-4.92z"/> <path class="st23" d="m706.34 1259c3.01 1 6.01 2.01 9.02 3.01-3.01-1.01-6.02-2.01-9.02-3.01z"/> <path class="st23" d="m715.35 1262c2.01 1.01 4.01 2.01 6.02 3.02-2.01-1.01-4.01-2.02-6.02-3.02z"/> <path class="st23" d="m703 1257.5c1.12 0.51 2.23 1.01 3.35 1.52-1.11-0.51-2.23-1.01-3.35-1.52z"/> <path class="st4" d="m1326.7 1236.8c-11.65 5.49-23.15 11.31-34.96 16.42-30.38 13.13-61.64 23.69-93.84 31.44-3.6 0.87-7.75 1.56-6.15 7.08-0.79-0.17-1.59-0.33-2.39-0.51-2-1.1-4.18-3.4-5.95-3.12-28.75 4.56-57.37 9.98-86.18 14.04-16 2.26-32.28 2.87-48.47 3.35-28.48 0.85-56.99 1.94-85.45 1.24-24.36-0.6-48.71-3.07-72.98-5.61-23.25-2.43-46.37-6-69.54-9.14-1.14-0.15-2.19-0.95-3.28-1.45 5.95-3.44 11.5-8.38 17.91-10.05 29.35-7.68 58.68-15.86 88.51-21.12 28.09-4.95 56.77-6.61 85.22-9.44 9.66-0.96 19.4-1.1 29.1-1.62 25.66 1.04 51.34 3.09 76.99 2.83 26.86-0.27 53.82-1.65 80.51-4.65 16.83-1.89 33.22-7.62 49.81-11.62 8.6 0 17.2-0.02 25.79 0 15.94 0.02 31.88-0.02 47.81 0.17 2.51 0.03 5.02 1.15 7.54 1.76z"/> <path class="st4" d="m735.01 1269.3c-0.03-0.46-0.08-0.92-0.17-1.37 0.5 0 1.01-0.01 1.51-0.01 0.52-1.51 1.05-3.02 1.57-4.54l-0.01 0.01c7.49-2.53 14.82-5.76 22.5-7.44 15.22-3.33 30.58-6.15 45.98-8.55 19.32-3.01 38.75-5.27 58.1-8.09 11.44-1.67 22.81-3.79 34.22-5.71 1.97-0.09 3.94-0.18 5.92-0.27 1.52-0.43 3.05-0.85 4.57-1.28 5.49-0.06 10.98-0.11 16.46-0.17 16.91 3.5 33.84 6.9 50.72 10.56 5.19 1.12 10.23 2.93 15.34 4.42-18.99 2.04-38.2 2.92-56.93 6.39-29.24 5.41-58.3 12.01-87.13 19.3-10.42 2.64-20.04 8.59-29.86 13.37-1.97 0.96-3.17 3.5-4.72 5.32-0.04 0.75-0.08 1.49-0.13 2.24-7.01-2.04-14.03-4.08-21.04-6.12-3.47-1.42-6.85-3.15-10.43-4.19-11.05-3.22-22.17-6.18-33.27-9.24-0.4 0-0.79 0.01-1.19 0.02-3.99-1.57-8-3.11-12.01-4.65z"/> <path class="st22" d="m1274.2 1227.3c1.27-1.34 2.31-3.08 3.84-3.96 19.19-11.11 38.47-22.07 57.66-33.19 0.85-0.5 1.06-2.12 1.56-3.22 4.98-0.02 9.97-0.04 14.95-0.06 6.99 0.98 14.01 1.79 20.97 2.97 8.59 1.45 17.13 3.21 25.7 4.83-8.55 6.17-17.05 12.41-25.67 18.47-5.26 3.7-10.7 7.14-16.07 10.69-27.64 1.16-55.29 2.31-82.94 3.47z"/> <path class="st16" d="m1245.6 1234.8c-16.59 4.01-32.99 9.74-49.81 11.62-26.68 2.99-53.64 4.38-80.51 4.65-25.65 0.25-51.32-1.79-76.99-2.83 5.17-1.45 10.26-3.5 15.53-4.24 14-1.98 28.1-3.32 42.14-5.05 18.71-2.3 37.35-5.54 56.12-6.88 20.38-1.46 40.89-1.78 61.33-1.47 10.76 0.15 21.47 2.72 32.19 4.2z"/> <path class="st20" d="m1357.1 1223.9c5.36-3.56 10.81-6.99 16.07-10.69 8.62-6.07 17.12-12.31 25.66-18.48 5.75 1.69 2.97 5.19 1.14 7.61-2.03 2.68-4.98 4.66-7.53 6.94-11.14 6.41-21.3 15.22-35.34 14.62z"/> <path class="st7" d="m1392.5 1209.2c2.55-2.28 5.5-4.26 7.53-6.94 1.83-2.42 4.61-5.92-1.14-7.61-8.56-1.62-17.1-3.37-25.7-4.83-6.96-1.18-13.98-1.99-20.97-2.97 0-1.01 0.01-2.01 0.01-3.02 17.4 2.56 34.79 5.12 52.19 7.68l1.8 7.47c-0.45 2.95-0.9 5.9-1.36 8.85-4.12 0.46-8.24 0.91-12.36 1.37z"/> <path class="st23" d="m748.23 1274c11.09 3.06 22.22 6.02 33.27 9.24 3.58 1.04 6.96 2.78 10.43 4.19-14.48-4.01-28.95-8.01-43.43-12.02-0.06-0.47-0.15-0.95-0.27-1.41z"/> <path class="st5" d="m1268.7 883.53c-2.99-9.98-6.65-19.83-8.78-30-1.84-8.81 1.73-13.47 10.31-16.47 15.45-5.4 31.38-5.33 47.41-4.05 3.48 0.28 6.96 0.44 10.45 0.66 4.72 1.5 9.61 2.63 14.13 4.59 8.29 3.59 11.32 9.15 9.32 17.92-1.42 6.24-3.99 12.22-6.05 18.31-5.37 4.32-10.69 8.7-16.12 12.94-15.94 12.46-40.29 13.57-53.83 1.42-2.14-1.91-4.55-3.55-6.84-5.32zm20.47-41.68c1.88 1.03 2.71 1.84 3.6 1.91 16.53 1.28 33.07 2.47 52.37 3.88-3.16-2.88-4.65-5.19-6.71-5.92-3.95-1.4-8.19-2.29-12.37-2.71-12.1-1.22-24.16-1.3-36.89 2.84z"/> <path class="st5" d="m1056.2 1126.9c-10.13-7.28-7.98-17.15-5.68-27.04 9.02-16.54 21.53-29.73 37.65-39.54 18.09-11.02 24.42-9.92 36.69 6.93 2.33 3.19 4.24 6.69 6.34 10.04-1.56 13.31-5.06 25.96-11.83 37.67-5.99 10.35-14.62 16.26-26.63 16.19-10.68-0.06-21.35-0.86-32.02-1.33l0.06-0.01c-0.52-0.51-1.03-1.03-1.55-1.54l0.06 0.06-1.56-1.56s0.07 0.09 0.07 0.09c-0.53 0.01-1.06 0.03-1.6 0.04zm22.92-50.33 0.72 2.16c2.52-0.42 5.13-0.57 7.55-1.32 7.11-2.19 14.19-4.48 21.18-7 2.62-0.94 6.93-0.4 5.49-5.87-1.33-5.09-4.57-6.68-8.83-5.23-10.19 3.45-19.01 9.18-26.11 17.26z"/> <path class="st5" d="m1251.6 970.59c16.7-2.71 22.37 0.27 29.15 16.22 2.29 5.39 3.52 11.24 5.24 16.88-0.81 1.78-1.96 3.48-2.36 5.35-2.57 11.84-8.4 21.77-17.92 29.14-8.36 6.47-18.05 11.71-28.73 10.03-18.45-2.91-32.03-13.21-39.19-31 1.06-2.49 1.53-5.53 3.28-7.37 6.95-7.34 13.68-15.1 21.65-21.2 8.97-6.88 19.2-12.11 28.88-18.05zm-24.24 28.25c0.55 0.7 1.1 1.4 1.65 2.1 15.3-2.04 28.9-7.91 39.44-19.76 3.06-3.45 0.73-7.65-4.03-7.56-2.85 0.06-6.03 0.92-8.43 2.43-7.8 4.91-15.45 10.09-22.86 15.57-2.4 1.76-3.88 4.77-5.77 7.22z"/> <path class="st5" d="m764.76 1066.9c-0.87-6.39-2.09-12.76-2.49-19.18-0.38-6.04 2.55-10.81 8.3-12.96 5.81-2.17 11.79-4.66 17.86-5.21 18.66-1.7 36.23 2.63 52.52 11.88 5.03 2.86 8.59 6.9 8.06 13.27-1.15 2.88-1.49 6.68-3.57 8.5-12.04 10.56-24.3 20.89-36.87 30.82-5.5 4.34-17.97 4.23-22.51-0.7-6.74-7.32-12.22-15.79-18.3-23.72-0.81-1.05-1.99-1.8-3-2.7zm27.83-31.51c4.87 7.75 27.43 13.16 39.02 10.14-12.45-6.75-24.52-9.88-39.02-10.14z"/> <path class="st5" d="m798.06 686.37c1.47 0.47 2.95 0.94 4.42 1.41 0.52 0.56 1.04 1.13 1.56 1.69 2.5 3.85 5.41 7.5 7.42 11.59 5.37 10.97 10.24 23.08 2.48 33.98-9.58 13.45-23.48 21.81-40.79 20.35-4.34-0.37-9.41-4.64-12.1-8.53-2.96-4.29-3.47-10.23-5.21-15.4-1.84-5.45-3.88-10.83-5.83-16.24-0.11-0.49-0.24-0.97-0.4-1.44l2.19-13.56c1.01-2.9 2.03-5.79 3.04-8.69 13.34-10.68 28.23-8.35 43.22-5.16zm-8.65 28.13c0.77-0.55 1.54-1.09 2.31-1.64-0.83-6.57-3.7-12.47-9.17-16.44-2.95-2.14-7.17-2.98-10.92-3.37-1.47-0.15-3.87 2.25-4.62 4.01-0.43 1.02 1.19 3.64 2.56 4.58 6.48 4.46 13.2 8.6 19.84 12.86z"/> <path class="st21" d="m1060.7 1129.8c10.67 0.47 21.34 1.27 32.02 1.33 12.01 0.07 20.64-5.84 26.63-16.19 6.78-11.71 10.27-24.37 11.83-37.67 0.55 0.47 1.09 0.93 1.64 1.4 4.2 12.67 9.82 25.06 12.3 38.06 4.36 22.83-7.49 35.54-30.77 35.89-20.08 0.3-36.51-8.6-52.15-19.75-0.82-0.58-1.02-2.02-1.5-3.07z"/> <path class="st21" d="m764.76 1066.9c1.01 0.89 2.19 1.65 2.99 2.7 6.08 7.93 11.56 16.4 18.3 23.72 4.54 4.93 17.02 5.04 22.51 0.7 12.57-9.93 24.83-20.25 36.87-30.82 2.08-1.82 2.42-5.62 3.57-8.5 0.54 22.7-10.05 40.91-23.44 57.98-0.9 1.15-1.83 2.27-2.75 3.41-2.38 1.33-4.63 2.98-7.14 3.94-16.81 6.46-24.69 4.11-32.5-7.89-5.9-9.06-10.04-19.28-14.96-28.98-1.16-5.41-2.3-10.83-3.45-16.26z"/> <path class="st24" d="m922.49 1124.1c0.1 21.53-14.73 31.63-38.33 26.18-11.19-2.58-18.48-7.63-17.29-19.18 4.4-11.19 22.01-24.01 33.65-23.8 11.17 0.19 18.28 6.45 21.97 16.8z"/> <path class="st21" d="m1197.8 1017.2c7.16 17.79 20.74 28.1 39.19 31 10.68 1.68 20.37-3.56 28.73-10.03 9.52-7.37 15.36-17.3 17.92-29.14 0.4-1.87 1.56-3.57 2.36-5.35 0.58 1.96 1.16 3.93 1.74 5.89-0.57 9.42-0.32 18.97-1.88 28.22-3.63 21.48-16.19 30.13-37.46 25.16-9.76-2.28-18.88-7.33-28.29-11.12-6.76-6.53-14.07-12.61-20.01-19.81-2.58-3.13-2.34-8.58-3.38-12.98 0.36-0.61 0.72-1.22 1.08-1.84z"/> <path class="st5" d="m684.06 1035c-1.11-0.58-3.1-1.56-5.02-2.66-5.61-3.19-11.15-6.52-16.82-9.6-7.02-3.81-8.86-10.06-4.28-16.76 3.77-5.52 7.76-10.96 12.26-15.86 1.45-1.58 4.89-1.8 7.37-1.67 0.63 0.03 0.93 3.85 1.6 5.85 2.91 8.65 5.87 17.27 8.88 25.89 0.98 2.81 2.54 5.47 3.19 8.35 1.11 4.85-1.24 7.04-7.18 6.46z"/> <path class="st25" d="m1197.8 1017.2c-0.36 0.61-0.72 1.22-1.07 1.84-10.47-19.28 2.97-39.69 23.24-46.92 10.11-3.61 20.86-6.21 31.65-1.52-9.68 5.94-19.91 11.17-28.89 18.04-7.97 6.09-14.71 13.86-21.65 21.2-1.75 1.83-2.22 4.87-3.28 7.36z"/> <path class="st5" d="m1367.3 958.46c8.63 8.05 8.94 18.84-3.24 24.71-2.45 1.18-4.45 3.88-6.92 4.3-4.05 0.69-9.7 1.68-12.12-0.41-2.47-2.14-3.72-8.75-2.23-11.8 4.11-8.41 3.82-16.9 3.42-25.63 0.99-0.23 1.98-0.46 2.97-0.68 1.01 0.1 2.02 0.2 3.03 0.31 5.03 3.06 10.06 6.13 15.09 9.2z"/> <path class="st21" d="m1268.7 883.53c2.29 1.77 4.69 3.41 6.84 5.34 13.55 12.16 37.9 11.04 53.83-1.42 5.43-4.24 10.75-8.63 16.12-12.94-7.95 18.51-21.38 31.58-40.15 38.54-7.82 2.9-15.08-0.84-21.43-5.78-5.07-7.92-10.14-15.83-15.21-23.74z"/> <path class="st24" d="m1020.3 1120.9c4.75 7.98 10.71 15.5 13.92 24.06 3.22 8.57 1.99 17.65-5.22 24.98-11.63 11.83-30.4 9.06-38.11-5.85-5.98-11.54-4.08-27.13 4.53-37.23 1.29-1.52 2.6-3.02 3.9-4.53 6.99-0.47 13.98-0.95 20.98-1.43zm9.04 32.51c0.03-10.92-4.25-19.78-12.77-26.6-5.35-4.29-12.99-4.46-17.07-0.21-7.35 7.69-10.18 17.07-9.1 27.45 1.11 10.68 11.86 18.68 23.06 17.74 8.67-0.73 15.9-9.11 15.88-18.38z"/> <path class="st25" d="m719 957.67c2.6 1.04 5.31 1.89 7.67 3.32 0.42 0.26-0.17 3.89-1.1 4.35-3.86 1.94-7.97 4.19-12.1 4.42-2.19 0.12-4.59-3.65-6.9-5.66 2.3-1.82 4.44-3.96 6.98-5.34 1.34-0.73 3.4-0.13 5.13-0.13 0.11-0.31 0.22-0.64 0.32-0.96z"/> <path class="st14" d="m751.86 995.21c2.92 3.16 5.91 5.09 6.9 7.77 1.3 3.51-1.29 6.2-4.9 4.98-4-1.36-7.54-4.07-11.28-6.2 2.57-1.8 5.12-3.6 9.28-6.55z"/> <path class="st25" d="m967.9 1087.3c-0.52-1.84-1.25-3.65-1.51-5.53-0.49-3.43 6.21-7.6 12.05-7.24 1.29 0.08 2.49 1.69 3.73 2.59-3.5 2.95-7 5.9-10.51 8.86-1.25 0.43-2.5 0.87-3.76 1.32z"/> <path class="st14" d="m886.22 1080.6c-4.95 3.53-8.14 5.9-11.5 8-0.24 0.15-2.64-2.44-2.53-2.57 2.4-3.05 4.87-6.07 7.71-8.68 0.41-0.39 2.76 1.36 6.32 3.25z"/> <path class="st14" d="m1362.2 921.4c4.66-1.09 8.7-0.22 10.4 4.93 0.41 1.23-1.3 3.15-2.04 4.75-3.39-2.33-6.78-4.67-10.17-7 0.6-0.89 1.2-1.79 1.81-2.68z"/> <path class="st25" d="m678.02 918.62c-2.98 1.99-5.1 3.99-5.61 3.64-2.35-1.61-4.45-3.74-6.16-6.04-0.33-0.44 1.48-2.47 2.3-3.77 2.64 1.73 5.29 3.45 9.47 6.17z"/> <path class="st14" d="m731.55 1055.6c-1.93-4.24-3.48-6.54-3.89-9.03-0.18-1.11 1.92-2.59 2.99-3.91 1.76 2.33 3.83 4.51 5.07 7.09 0.33 0.72-1.81 2.62-4.17 5.85z"/> <path class="st25" d="m1300.3 956.6c3.98 7.43 0.16 9.76-3.22 11.86-0.8 0.5-2.79-0.92-4.23-1.45 2.23-3.11 4.45-6.23 7.45-10.41z"/> <path class="st25" d="m1371.3 883.29c2.62 3.39 4.65 5.65 6.09 8.22 0.27 0.48-1.81 2.27-2.81 3.46-2.27-2.2-4.67-4.28-6.65-6.71-0.26-0.32 1.58-2.37 3.37-4.97z"/> <path class="st25" d="m668 968c-0.72-1.46-2.35-3.25-1.97-4.3 0.81-2.24 2.68-4.11 4.11-6.12 1.06 1.39 3.08 2.86 2.96 4.14-0.21 2.19-1.75 4.25-2.73 6.37-0.79-0.04-1.58-0.06-2.37-0.09z"/> <path class="st25" d="m1279.1 944.87c-2.2-2.95-3.94-4.67-4.73-6.76-0.21-0.56 3.2-3.45 3.68-3.16 1.92 1.15 3.75 2.94 4.71 4.93 0.34 0.7-1.88 2.65-3.66 4.99z"/> <path class="st25" d="m641.25 994.35c1.61 2.86 3.53 4.96 3.09 5.77-1.04 1.9-3.2 3.18-4.91 4.71-1.04-1.25-3.18-2.86-2.91-3.67 0.69-2.04 2.46-3.71 4.73-6.81z"/> <path class="st14" d="m1352.2 949.26c-1.01-0.1-2.02-0.2-3.03-0.31 1.01 0.1 2.02 0.2 3.03 0.31z"/> <path class="st24" d="m1205.2 1099.9c0.11-6.42 3.43-11.14 9.01-14.33 1.1-0.63 3.4-0.15 4.57 0.66 0.76 0.53 1.14 3.21 0.54 3.83-3.88 4.05-8.07 7.8-12.15 11.65-0.66-0.6-1.32-1.2-1.97-1.81z"/> <path class="st24" d="m710.77 1081.7c-3.15 2.03-6.06 4.41-6.43 4.06-2.13-1.98-3.78-4.53-5.2-7.1-0.17-0.31 2.58-2.99 3.04-2.76 2.64 1.37 5.01 3.29 8.59 5.8z"/> <path class="st24" d="m959.55 1144c2.64 2.58 5.31 5.14 7.78 7.88 0.07 0.08-2.03 2.11-3.12 3.24-2.65-2.59-5.29-5.18-7.94-7.76 1.09-1.12 2.18-2.24 3.28-3.36z"/> <path class="st24" d="m1265.8 1111c2.34-2.95 4.68-5.91 7.78-9.83 2.33 7.94 1.04 9.84-5.83 11.53-0.65-0.56-1.3-1.13-1.95-1.7z"/> <path class="st24" d="m1175 1124c-2.09 2.31-3.38 3.74-4.67 5.16-1.43-2.02-3.25-3.89-4.07-6.13-0.28-0.76 2.53-3.69 2.95-3.5 1.87 0.86 3.38 2.49 5.79 4.47z"/> <path class="st21" d="m1057.7 1126.8 1.56 1.56-1.56-1.56z"/> <path class="st21" d="m1056.2 1126.9c0.53-0.01 1.06-0.03 1.59-0.04-0.52 0.01-1.05 0.03-1.59 0.04z"/> <path class="st21" d="m1059.2 1128.3c0.52 0.51 1.03 1.03 1.55 1.54-0.52-0.51-1.04-1.02-1.55-1.54z"/> <path class="st17" d="m565.27 1020.2c-1.29 3.39-2.38 6.87-3.98 10.1-0.43 0.87-2.41 0.98-3.68 1.44-0.41-1.3-1.56-3.31-1.11-3.79 2.68-2.82 5.73-5.28 8.65-7.86l0.12 0.11z"/> <path class="st18" d="m542.96 1025c1.72-4.25-4.77-10.11 4.72-14.68-0.86 6.18-1.47 10.63-2.09 15.08-0.88-0.13-1.75-0.26-2.63-0.4z"/> <path class="st17" d="m565.16 1020.1c0.23-0.18 0.45-0.37 0.68-0.55-0.19 0.22-0.38 0.44-0.57 0.66l-0.11-0.11z"/> <path class="st19" d="m740.95 1135.7c14.55 6.99 29.1 13.97 43.64 20.96-9.08 1.52-18.15 3.04-27.23 4.56-9.09-6.04-18.24-12-27.23-18.19-2.21-1.52-3.91-3.77-5.85-5.68 5.56-0.56 11.12-1.1 16.67-1.65z"/> <path class="st19" d="m901.59 1228.8c-3.95-2.04-7.77-4.38-11.86-6.06-24.53-10.09-49.13-20.02-73.7-30.01 12.57-2.45 25.11-5.05 37.72-7.21 1.89-0.32 4.21 1.26 6.2 2.24 11.35 5.61 22.27 12.33 34.07 16.69 14.03 5.18 28.79 8.36 43.24 12.41 0.86 0.24 1.71 0.51 2.79 2.46-5.06 1.16-10.12 2.34-15.19 3.49-5.28 1.19-10.58 2.27-15.82 3.6-0.64 0.16-0.96 1.57-1.43 2.4-0.99 0.01-1.99 0.02-2.98 0.03-1.01-0.02-2.03-0.03-3.04-0.04z"/> <path class="st19" d="m803.86 1188.2c-8.67-5.09-17.4-10.06-25.95-15.34-2.14-1.32-3.68-3.64-5.49-5.5 11.99 0.2 24.27-1.14 35.9 1.01 13.07 2.42 25.55 8 40.05 12.78-15.96 2.53-30.23 4.79-44.51 7.05z"/> <path class="st6" d="m1229.1 1179.4c-0.01 0.99-0.02 1.99-0.02 2.98h-24.23c-0.03-0.99-0.06-1.99-0.09-2.98h24.34z"/> <path class="st7" d="m904.63 1228.9c0.99-0.01 1.99-0.02 2.98-0.03 0.53 1.07 1.06 2.15 1.59 3.22-1.52 0.43-3.05 0.86-4.57 1.28v-4.47z"/> <path class="st1" d="m635.79 1221.4c-0.5-1-1-2-1.51-3l3.75 1.11c-0.74 0.64-1.49 1.26-2.24 1.89z"/> <path class="st5" d="m957.27 895.23c-11.48-6.39-23.63-11.84-34.24-19.44-10.41-7.45-11.31-16.71-4.5-27.74 10.63-17.23 25.78-28.88 45.07-35.3 11.07-3.68 18.03 2.43 24.89 9.35 0.55 1.44 1.09 2.89 1.64 4.33-1.46 11.39-2.36 22.88-4.51 34.13-2.74 14.33-6.81 28.18-23.91 32.13-1.59 0.36-2.97 1.67-4.44 2.54zm-11.83-65.4c-0.33-0.31-0.66-0.61-0.98-0.92-4.85 5-9.7 10.01-14.56 15.01 0.26 0.24 0.52 0.48 0.77 0.71 4.93-4.93 9.85-9.86 14.77-14.8z"/> <path class="st5" d="m1125.5 899.67-1.71-0.36c-1.93-0.37-3.86-0.75-5.79-1.12-7.4-2.13-15.3-3.27-22.03-6.72-5.1-2.62-8.69-8.18-12.95-12.43 3.57-18.65 14.19-33.32 26.64-46.92 6.29-6.87 14.14-10.96 23.36-12.4 1.01 0.34 2.02 0.68 3.03 1.02 0.73 0.35 1.47 0.7 2.2 1.05 0 0 0.58-0.08 0.58-0.08 11.45 12.8 20.98 26.7 25.84 43.46 5.27 18.18-5.52 32-25.25 33.31-4.64 0.32-9.28 0.79-13.92 1.19zm-30.21-32.73c0.73 0.6 1.45 1.19 2.18 1.79 4.82-5.18 9.95-10.12 14.38-15.62 3.7-4.6 6.8-9.75 9.68-14.92 0.64-1.14-0.45-3.62-1.38-5.06-0.33-0.5-3.13-0.29-3.88 0.49-9.32 9.68-17.84 19.9-20.98 33.32z"/> <path class="st5" d="m1048.6 950.87c3.44-2.87 6.7-6 10.36-8.54 6.44-4.48 13.21-5.48 20.03-0.57 2.02 2.06 4.04 4.12 6.06 6.18v-0.12c0.39 1.42 0.6 2.92 1.2 4.24 4.32 9.41 8.76 18.76 13.1 28.16 7.85 17.04-0.7 30.38-19.04 31.04-18.49 0.66-36.24-1.07-52.52-10.68-0.53-1.98-1.05-3.97-1.58-5.95 0-0.54 0.01-1.07 0.01-1.61 1.26-4.94 1.52-10.46 3.99-14.7 5.55-9.48 12.19-18.33 18.39-27.45z"/> <path class="st5" d="m690.01 848.96c1.96-2.02 3.55-4.91 5.94-5.92 20.36-8.63 41.06-9.13 61.42-0.42 4.91 2.1 8.61 7.01 12.86 10.64l0.87 1.47 0.03 0.06c-0.32 4.97-0.63 9.94-0.95 14.92-0.43-1.96-0.87-3.91-1.48-6.65-3.4 7.63-5.78 14.83-9.64 21.11-3.68 5.98-7.98 12.47-13.67 16.16-11.76 7.62-29.19 1.37-38.94-12.13-8.55-11.85-14.16-24.82-16.44-39.24z"/> <path class="st5" d="m1048.8 683.37c4.48-1.36 8.89-3.02 13.44-4.04 16.47-3.7 24.33 0.53 30.65 16.21 0.27 4.58 0.54 9.17 0.81 13.76-1.82 3.76-3.5 7.6-5.5 11.26-7.37 13.48-16.19 24.98-33.72 24.86-1.86-0.01-3.74 1.71-5.61 2.63-0.54 0.1-1.08 0.19-1.61 0.29-8.53-5.04-17.63-9.35-25.38-15.39-5.21-4.06-8.5-10.59-12.65-16.01 0.86-8.07 5.75-13.74 12.07-17.79 8.88-5.71 18.3-10.56 27.5-15.78zm-15.96 20.34c2.61 0.58 3.63 1.17 4.4 0.93 11.34-3.44 22.7-6.84 33.91-10.68 1.45-0.5 3.33-4 2.83-5.03-0.85-1.73-3.57-3.78-5.32-3.63-13.78 1.2-25.44 6.84-35.82 18.41z"/> <path class="st5" d="m840 925.49c3.67-13.21 15.05-14.69 25.85-16.62 15.02-2.68 29.26 0.93 43.19 6.28 7.36 4.59 8.8 11.48 7.5 19.42-1.09 2.19-2.22 4.36-3.26 6.57-6.97 14.75-16.76 26.1-33.19 31.15-14.98 4.6-28.1-4.29-32.58-19.1-2.77-9.15-5.02-18.46-7.51-27.7zm17.99-7.3c11.6 11.36 28.29 13.37 44.3 4.41-9.26-8.32-34.09-11.04-44.3-4.41z"/> <path class="st21" d="m750 715.23c1.95 5.41 3.99 10.79 5.83 16.24 1.75 5.17 2.25 11.11 5.21 15.4 2.69 3.89 7.76 8.17 12.1 8.53 17.31 1.46 31.21-6.89 40.79-20.35 7.76-10.9 2.89-23.02-2.48-33.98-2-4.09-4.92-7.74-7.42-11.59 8.33 4.78 17.52 8.52 24.79 14.58 11.84 9.88 11.98 20.81 2.06 32.38-14.36 16.76-33.66 24.98-54.23 30.92-7.51 0.85-12.97-2.57-17.29-8.34-7.38-13.69-12.66-27.82-9.36-43.79z"/> <path class="st5" d="m955.17 1050.6c-8.35-2.98-17.14-5.13-24.93-9.19-7.7-4.01-7.9-10.18-2.04-16.68 4.51-5 9.03-9.99 13.72-14.82 6.31-6.5 13.7-6.23 19.12 0.94 3.45 4.57 6.49 9.49 9.29 14.49 8.4 14.94 2.73 24.04-15.16 25.26z"/> <path class="st26" d="m770.18 869.7c0.32-4.97 0.63-9.94 0.95-14.92 8.07 2.93 10.7 10.11 12.73 17.28 4.97 17.56-2.54 39.43-16.84 50.49-7.41 5.73-15.89 5.57-24.24 3.49-2.51-0.62-4.28-4.2-6.4-6.42 20.44-10.43 30.48-27.9 33.8-49.92z"/> <path class="st21" d="m770.18 869.7c-3.32 22.02-13.36 39.49-33.79 49.92-8.32 0.78-15.06-2.54-20.91-8.11-12.38-11.77-21.47-25.79-25.78-42.23-1.65-6.32 0.11-13.53 0.31-20.33 2.29 14.42 7.9 27.39 16.45 39.23 9.75 13.49 27.18 19.75 38.94 12.13 5.69-3.69 9.98-10.17 13.67-16.16 3.87-6.28 6.24-13.48 9.64-21.11 0.6 2.75 1.04 4.7 1.47 6.66z"/> <path class="st26" d="m1093.7 709.29c-0.27-4.59-0.54-9.17-0.81-13.76 13.17 7.2 20.91 17.8 22.17 33.18 0.77 9.41-3.95 15.91-10.91 19.88-16.8 9.59-34.51 14.55-52.98 3.79-1.56-0.91-2.62-2.68-3.91-4.05 0.54-0.1 1.08-0.19 1.61-0.29 4.17 1.54 8.23 3.58 12.53 4.53 14.31 3.17 23.36-1.08 27.92-15.02 2.91-8.93 3.01-18.8 4.38-28.26z"/> <path class="st26" d="m916.53 934.58c1.3-7.94-0.14-14.82-7.5-19.42 4.65-5.35 8.61-5.45 11.63 1.03 4.27 9.18 8.41 18.71 10.57 28.53 2.92 13.27-5.18 27.46-18.74 34.34-6.06 3.08-12.97 4.86-19.7 6.08-2.89 0.52-6.31-1.89-9.49-2.97 2.75-1.69 5.61-3.22 8.22-5.09 14.63-10.44 25.48-23.16 25.01-42.5z"/> <path class="st27" d="m990.12 826.43c-0.55-1.44-1.09-2.89-1.64-4.33 5.35 3.94 11.68 7.06 15.88 11.98 14.97 17.53 17.49 41.2-2.6 58.19-11.36 9.6-23.98 9.29-37.2 5.26 19.71-0.99 30.19-9.95 33.55-29.4 2.57-14.81-0.92-28.65-7.99-41.7z"/> <path class="st5" d="m888.14 673.2c1.22-9.07 8.31-14.66 18.88-12.9 8.94 1.48 17.55 4.98 26.3 7.59-5.09 8.04-9.57 16.56-15.44 23.97-4.73 5.98-13.36 5.22-19.18 0.31-2.69-2.27-6.18-3.6-9.31-5.36l0.11 0.06c-0.46-4.55-0.91-9.11-1.36-13.67z"/> <path class="st26" d="m776.67 767.35c20.57-5.94 39.87-14.16 54.23-30.92 9.92-11.58 9.77-22.51-2.06-32.38-7.26-6.06-16.46-9.8-24.79-14.58-0.52-0.56-1.04-1.13-1.56-1.69 1-0.94 2-1.88 3.01-2.81 0.51-0.01 1.03-0.02 1.54-0.03 1.48 0.05 2.96 0.09 4.44 0.14 9.96 1.76 19.28 4.76 26.61 12.33 8.6 8.88 9.67 16.5 3.55 27.42-0.71 1.26-1.53 2.71-1.54 4.07-0.02 18.79-12.33 27.59-27.46 34.27-11.59 5.1-23.68 5.43-35.97 4.18z"/> <path class="st5" d="m698.98 796.05c-1.71-3.7-4.04-7.26-5.01-11.15-1.73-6.98 6.5-22.45 12.89-25.67 7.78-3.92 14.33-1.7 20.35 3.73 0.66 0.57 1.32 1.14 1.97 1.71 0 0 0.03-0.3 0.03-0.29 0.42 2.68 0.81 5.36 1.28 8.03 2.24 12.55 0.85 14.56-11.83 17.93-6.59 1.74-13.12 3.79-19.68 5.71z"/> <path class="st5" d="m1190.8 796.45c-0.62-1.35-1.5-2.63-1.83-4.05-1.39-5.92-4.74-12.43 1.09-17.4 6.05-5.15 13.52-6.01 21.07-3.32 5.11 1.82 10.05 4.09 15.07 6.16-0.53 4.17-1.08 8.34-1.59 12.52-1.54 12.53-14.53 20.21-27.04 10.5-2.12-1.63-4.51-2.94-6.77-4.41z"/> <path class="st21" d="m1027.8 1000.6c16.28 9.6 34.03 11.34 52.52 10.68 18.34-0.66 26.9-14 19.04-31.04-4.33-9.4-8.77-18.76-13.1-28.16-0.61-1.32-0.81-2.82-1.2-4.24 2.06 1.65 4.41 3.05 6.15 5 10.76 12.04 17.12 26.4 21.64 41.7 1.26 15.31-0.18 17.44-15.28 20.82-22.59 5.05-44.56 4.29-65.19-7.66-1.53-2.37-3.05-4.73-4.58-7.1z"/> <path class="st5" d="m860.39 836.93c7.92-0.16 12.36 4.28 12.47 12.45 0.17 12.9-8.52 22.86-20.25 23.2-9.7 0.28-15.34-4.89-15.48-14.17-0.22-14.41 7.09-21.17 23.26-21.48zm-12.67 24.68c0.69-0.01 1.37-0.02 2.06-0.03v-16.42c-0.94 0.01-1.87 0.01-2.81 0.02 0.25 5.48 0.5 10.95 0.75 16.43z"/> <path class="st21" d="m916.53 934.58c0.47 19.35-10.38 32.06-25.01 42.51-2.62 1.87-5.48 3.4-8.22 5.09-12.84 6.4-23.36 2.49-32.55-7.33-3.98-8.44-7.96-16.89-11.95-25.33 0.4-8.01 0.8-16.01 1.2-24.02 2.49 9.24 4.74 18.55 7.51 27.71 4.48 14.8 17.6 23.7 32.58 19.1 16.42-5.05 26.22-16.4 33.19-31.15 1.04-2.22 2.17-4.4 3.25-6.58z"/> <path class="st27" d="m1152.2 828.09c17.01 3.01 37.92 19.87 41.57 35.78 3.6 15.66-2.28 23.86-20.12 27.1 2.59-9.49 3.31-18.88 0.31-28.57-4.17-13.49-13.04-23.81-21.76-34.31z"/> <path class="st6" d="m1152.2 828.09c8.72 10.5 17.59 20.83 21.77 34.31 3 9.68 2.28 19.07-0.31 28.57-3.46 7.01-9.5 10.55-16.91 10.51-10.42-0.06-20.83-1.16-31.25-1.81 4.64-0.4 9.28-0.87 13.93-1.18 19.72-1.31 30.51-15.14 25.25-33.31-4.86-16.77-14.39-30.66-25.84-43.46 4.45 2.12 8.9 4.24 13.36 6.37z"/> <path class="st21" d="m990.12 826.43c7.06 13.06 10.55 26.9 8 41.7-3.36 19.45-13.84 28.42-33.55 29.4-2.43-0.77-4.86-1.54-7.29-2.3 1.47-0.87 2.84-2.17 4.43-2.54 17.1-3.95 21.18-17.8 23.91-32.13 2.14-11.25 3.05-22.75 4.5-34.13z"/> <path class="st27" d="m1048.8 683.37c-9.19 5.22-18.62 10.07-27.51 15.77-6.32 4.06-11.21 9.72-12.07 17.79-10.81-10.52-8.73-26.68 4.84-32.73 11.21-5 23.04-5.58 34.74-0.83z"/> <path class="st5" d="m881.9 780.12c-5.37-10.16 0.3-20.44 12.52-22.71 9.36-1.74 18.05 2.94 22.15 11.93-0.61 2.6-0.74 5.44-1.9 7.76-4.33 8.67-20.6 12-28.6 4.32-0.95-0.9-2.76-0.89-4.17-1.3zm16.77-19.74c-3.24 4.8-6.45 7.76-7.02 11.16-0.28 1.67 4.23 5.83 6.72 5.95 5.28 0.26 8.13-4.07 7.5-9.02-0.3-2.28-3.57-4.18-7.2-8.09z"/> <path class="st26" d="m1112.8 994.53c-4.52-15.3-10.88-29.66-21.64-41.7-1.74-1.94-4.08-3.34-6.15-5v0.12c-1.09-1.67-2.18-3.33-3.27-5 2.08-0.52 4.6-2.07 6.17-1.4 14.25 6.08 25.68 15.56 29.95 30.89 1.6 5.76-0.1 12.54-0.84 18.79-0.15 1.25-2.75 2.21-4.22 3.3z"/> <path class="st21" d="m889.39 686.82c3.13 1.76 6.62 3.08 9.31 5.36 5.82 4.91 14.44 5.66 19.18-0.31 5.87-7.42 10.36-15.93 15.44-23.97 8.73 3.84 11.04 10.14 6.1 18.33-5.38 8.91-13.41 14.68-23.61 16.87-6.94 1.49-13.26 0.56-17.74-6.15-2.44-3.69-5.76-6.78-8.68-10.13z"/> <path class="st26" d="m1027.8 1000.6c1.53 2.36 3.05 4.73 4.58 7.09-1.44 0.15-3.15 0.89-4.29 0.37-13.72-6.31-17.96-20.24-9.7-32.95 7.35-11.31 17.12-19.94 30.22-24.23-6.2 9.11-12.84 17.97-18.38 27.46-2.47 4.23-2.73 9.76-3.99 14.7 0 0.54-0.01 1.07-0.01 1.61 0.52 1.98 1.04 3.97 1.57 5.95z"/> <path class="st21" d="m1190.8 796.45c2.26 1.46 4.65 2.77 6.77 4.42 12.52 9.71 25.5 2.03 27.04-10.5 0.51-4.18 1.06-8.35 1.59-12.52 1.52 2.73 4.37 5.48 4.32 8.17-0.2 10.22-3.92 19.5-10.53 27.32-6.89 8.15-16.73 7.76-22.53-1.21-3.03-4.7-4.49-10.42-6.66-15.68z"/> <path class="st6" d="m698.98 796.05c6.56-1.91 13.09-3.96 19.69-5.72 12.68-3.37 14.07-5.38 11.83-17.93-0.48-2.67-0.86-5.35-1.28-8.03 4.21 2.64 8.92 4.73 12.52 8.03 6.09 5.58 4.09 15.81-4.05 19.14-12.36 5.04-25.28 7.58-38.71 4.51z"/> <path class="st13" d="m1133.1 819.72c-9.22 1.44-17.07 5.53-23.36 12.4-12.45 13.59-23.07 28.26-26.64 46.92-0.66-3.48-2.74-7.45-1.74-10.35 7.29-21.13 19.14-38.9 38.84-50.74 5.27-3.19 9.04-2.01 12.9 1.77z"/> <path class="st26" d="m750 715.23c-3.3 15.97 1.98 30.11 9.38 43.79-4.88 3.52-12.31 2.04-14.83-4.43-2.34-6.01-3.89-13.16-2.96-19.39 1.09-7.37 5.21-14.29 8.02-21.41 0.15 0.47 0.28 0.95 0.39 1.44z"/> <path class="st18" d="m1191 745.13c-3.67-1.57-6.51-2.13-8.45-3.76-3.92-3.31-9.31-7.41-5.95-12.9 3.5-5.72 9.29-2.46 14.07-0.18 1.13 0.54 2.57 0.86 3.26 1.76 2.26 2.92 4.23 6.07 6.32 9.13-3.12 1.99-6.23 4-9.25 5.95z"/> <path class="st18" d="m1012 1049.3c-2.3-1.81-4.92-3.06-6.08-5.12-0.53-0.95 1.37-4.23 2.93-5.19 4.19-2.56 8.65-4.95 13.32-6.31 1.87-0.55 5.82 1.24 6.57 2.95 0.77 1.75-0.49 5.85-2.16 6.92-4.29 2.75-9.28 4.4-14.58 6.75z"/> <path class="st8" d="m881.9 780.12c1.41 0.41 3.23 0.4 4.17 1.3 8 7.68 24.27 4.35 28.6-4.32 1.16-2.32 1.3-5.16 1.9-7.76 3.44 7.21 1.86 13.95-3.24 19.37-5.17 5.51-12.22 4.53-18.14 1.61-4.91-2.43-8.9-6.73-13.29-10.2z"/> <path class="st18" d="m1273.9 767.76c-8.18-0.02-13.93-5.75-13.07-11.33 0.36-2.33 3.2-4.28 4.91-6.41 4.79 3.9 9.58 7.81 14.37 11.71-2.54 2.47-5.08 4.94-6.21 6.03z"/> <path class="st27" d="m1001.2 763.43c-4.19 4.18-7.8 8.2-11.92 11.59-1.01 0.83-4.35 0.26-5.41-0.84-0.91-0.94-0.55-3.72 0.07-5.38 1.22-3.26 2.6-6.61 4.69-9.33 1.59-2.08 4.37-3.25 6.62-4.83 1.6 2.36 3.19 4.72 5.95 8.79z"/> <path class="st18" d="m1034.8 895.45c-4.53 5.38-7.94 9.44-11.36 13.5-1.54-2.42-4.64-5.08-4.3-7.2 0.78-4.98 0.4-11.97 8.13-12.14 1.93-0.04 3.93 2.94 7.53 5.84z"/> <path class="st18" d="m811.65 806.12c-2.64-1.6-4.92-2.2-5.33-3.42-0.52-1.55-0.17-4.52 0.92-5.28 4.23-2.96 8.82-5.48 13.49-7.69 1.02-0.48 3.34 0.61 4.35 1.65 0.72 0.74 0.84 3.34 0.19 3.91-4.42 3.81-9.12 7.31-13.62 10.83z"/> <path class="st27" d="m1037.2 813.17c7.5-0.61 13.4-1.35 19.3-1.4 1.4-0.01 3.71 2.12 3.98 3.57 0.27 1.41-1.15 3.75-2.51 4.74-5.61 4.14-15.06 1.86-20.77-6.91z"/> <path class="st18" d="m790.67 823.93c6.85-0.26 14.01 4.89 13.17 9.14-0.48 2.45-3.22 5.7-5.52 6.27-4.05 1-10.84-6.16-10.5-10.7 0.15-1.88 2.16-3.62 2.85-4.71z"/> <path class="st18" d="m988.01 665.6c0.73 0.86 3.03 2.36 3.29 4.14 0.72 5.01-6.41 12.87-11.03 12.12-1.45-0.23-3.32-3.15-3.49-4.98-0.52-5.51 4.65-11.13 11.23-11.28z"/> <path class="st18" d="m1311.8 790.23c3.88 7.9 7.01 13.88 4.39 21.05-0.46 1.27-2.2 2.62-3.53 2.85-1.01 0.17-3.16-1.22-3.35-2.2-1.31-6.62-3.16-13.4 2.49-21.7z"/> <path class="st18" d="m1218.7 868.97c4.63 4.58 5.91 12.25 3.02 17.22-1.86 3.19-3.89 3.58-6.3 0.75-3.45-4.06-1.47-14.67 3.28-17.97z"/> <path class="st18" d="m807.75 951.76c-3.22 3.28-5.63 5.74-8.05 8.21-1.52-1.93-4.65-4.33-4.26-5.71 1.18-4.12 3.75-7.84 5.78-11.72 1.83 2.58 3.66 5.16 6.53 9.22z"/> <path class="st18" d="m681.59 879.78c-3.18 3.8-5.61 6.7-8.04 9.6-1.56-2.05-4.81-4.69-4.34-6.05 1.28-3.77 4.12-7 6.34-10.45 1.65 1.88 3.3 3.77 6.04 6.9z"/> <path class="st26" d="m838.81 949.51c3.98 8.44 7.97 16.89 11.95 25.33-8.25-2.27-15.93-12.64-14.93-20.68 0.19-1.65 1.94-3.11 2.98-4.65z"/> <path class="st18" d="m677.56 833.59c-3.7 3.54-5.8 5.56-7.9 7.57-1.8-2.78-4.49-5.38-5.07-8.39-0.35-1.79 2.61-4.22 4.08-6.36 2.52 2.03 5.03 4.06 8.89 7.18z"/> <path class="st18" d="m1133 653.71c3.55 1.46 7.1 2.91 10.65 4.36-0.88 2.87-1.76 5.75-2.63 8.62-2.15-0.84-4.7-1.21-6.35-2.63-3.24-2.78-4.63-6.34-1.67-10.35z"/> <path class="st17" d="m1072.8 654.5c-2.36 4.97-6.24 7.96-11.99 7.81-1.37-0.03-2.96-1.47-3.92-2.68-0.41-0.52 0.28-2.85 0.96-3.12 4.56-1.81 9.26-3.28 13.91-4.86 0.34 0.96 0.69 1.91 1.04 2.85z"/> <path class="st18" d="m960.36 726.02c-3.52 1.78-6.05 3.9-6.92 3.35-3-1.87-5.42-4.66-8.06-7.11 1.63-1.15 3.86-3.64 4.78-3.22 3.17 1.44 5.88 3.89 10.2 6.98z"/> <path class="st18" d="m672.64 784.39c2.06 2.9 4.8 5.57 4.34 6.35-1.3 2.2-3.71 4.4-6.09 5.01-1.12 0.29-4.84-3.75-4.48-4.65 0.92-2.3 3.49-3.96 6.23-6.71z"/> <path class="st18" d="m1186.5 930.45c1.64 2.32 3.41 4.41 3.22 4.61-2.38 2.46-4.91 4.84-7.75 6.7-0.53 0.34-2.63-1.71-4-2.66 2.59-2.64 5.19-5.27 8.53-8.65z"/> <path class="st18" d="m990.98 949.11c-3.53 1.67-5.72 3.43-6.52 2.94-2.34-1.45-4.12-3.79-6.13-5.78 1.24-1.2 3.09-3.66 3.62-3.4 2.66 1.3 4.97 3.31 9.03 6.24z"/> <path class="st18" d="m1137.8 754.4c-2.76-2.61-4.86-4.1-6.1-6.12-0.28-0.45 2.84-4.15 3.65-3.91 2.33 0.71 4.48 2.48 6.17 4.32 0.3 0.34-1.91 2.99-3.72 5.71z"/> <path class="st21" d="m888.14 673.2c0.45 4.56 0.91 9.12 1.36 13.68-0.46-4.56-0.91-9.12-1.36-13.68z"/> <path class="st21" d="m1081.8 942.95c1.09 1.67 2.18 3.33 3.27 5-2.02-2.06-4.04-4.12-6.06-6.18 0.92 0.39 1.85 0.78 2.79 1.18z"/> <path class="st6" d="m1118 898.18c1.93 0.37 3.86 0.75 5.79 1.12-1.92-0.37-3.85-0.74-5.79-1.12z"/> <path class="st6" d="m729.19 764.66c-0.66-0.57-1.31-1.14-1.97-1.71 0.65 0.57 1.31 1.14 1.97 1.71z"/> <path class="st26" d="m771.1 854.72-0.87-1.47 0.87 1.47z"/> <path class="st6" d="m1138.3 821.79c-0.73-0.35-1.47-0.7-2.2-1.05 0.73 0.35 1.46 0.7 2.2 1.05z"/> <path class="st9" d="m807.03 684.94c-0.51 0.01-1.03 0.02-1.54 0.03 0.51-0.02 1.03-0.03 1.54-0.03z"/> <path class="st21" d="m1352.2 1183.9c0 1.01-0.01 2.01-0.01 3.02-4.98 0.02-9.97 0.04-14.95 0.06-5.59-1-11.18-2.01-16.78-3.02 8.74-4.25 17.29-1.04 25.87-0.24 1.96 0.06 3.91 0.12 5.87 0.18z"/> <path class="st21" d="m1315.2 1184.2h-15.1c-0.01-0.73-0.01-1.45-0.02-2.18h15.1c0 0.73 0.01 1.46 0.02 2.18z"/> <path class="st7" d="m1469.3 1137.3c-0.2-0.07-0.4-0.15-0.6-0.22 0.16-0.15 0.31-0.3 0.47-0.45 0.07 0.2 0.13 0.41 0.2 0.61l-0.07 0.06z"/> <path class="st7" d="m898.71 1233.6c-11.4 1.92-22.78 4.05-34.22 5.71-19.35 2.82-38.78 5.08-58.1 8.09-15.4 2.4-30.76 5.22-45.98 8.55-7.68 1.68-15.01 4.91-22.5 7.44 4.31-3.01 8.23-7.59 12.99-8.75 19.24-4.67 38.64-8.79 58.15-12.15 22.2-3.82 44.58-6.57 66.88-9.86 7.59-1.12 15.14-2.45 22.71-3.68 0.03 1.56 0.05 3.1 0.07 4.65z"/> <path class="st21" d="m898.71 1233.6c-0.02-1.54-0.04-3.09-0.07-4.63l2.94-0.15c1.01 0.01 2.03 0.03 3.04 0.04v4.47c-1.96 0.09-3.94 0.18-5.91 0.27z"/> <path class="st7" d="m737.92 1263.4c-0.52 1.51-1.05 3.02-1.57 4.54 0.53-1.52 1.05-3.03 1.57-4.54z"/> <path class="st23" d="m1289.2 841.85c12.73-4.14 24.79-4.06 36.89-2.84 4.19 0.42 8.42 1.31 12.37 2.71 2.06 0.73 3.55 3.04 6.71 5.92-19.3-1.41-35.84-2.6-52.37-3.88-0.89-0.06-1.72-0.88-3.6-1.91z"/> <path class="st23" d="m1079.1 1076.6c7.1-8.08 15.93-13.8 26.12-17.26 4.26-1.44 7.5 0.15 8.83 5.23 1.43 5.47-2.88 4.92-5.49 5.87-7 2.52-14.08 4.82-21.18 7-2.42 0.75-5.03 0.9-7.55 1.32-0.26-0.72-0.49-1.44-0.73-2.16z"/> <path class="st23" d="m1227.3 998.84c1.9-2.44 3.38-5.45 5.77-7.22 7.41-5.48 15.05-10.67 22.86-15.57 2.4-1.51 5.58-2.37 8.43-2.43 4.75-0.09 7.09 4.11 4.03 7.56-10.54 11.86-24.13 17.73-39.44 19.76-0.56-0.71-1.11-1.41-1.65-2.1z"/> <path class="st23" d="m792.59 1035.4c14.51 0.25 26.57 3.38 39.02 10.14-11.6 3.02-34.15-2.39-39.02-10.14z"/> <path class="st23" d="m789.41 714.5c-6.64-4.26-13.35-8.4-19.84-12.87-1.36-0.94-2.99-3.56-2.56-4.58 0.74-1.76 3.15-4.16 4.62-4.01 3.75 0.39 7.97 1.23 10.92 3.37 5.47 3.97 8.34 9.87 9.17 16.44-0.77 0.56-1.54 1.1-2.31 1.65z"/> <path class="st14" d="m1029.3 1153.4c0.02 9.27-7.21 17.65-15.87 18.38-11.2 0.95-21.95-7.05-23.06-17.74-1.08-10.38 1.75-19.77 9.1-27.45 4.07-4.26 11.71-4.08 17.07 0.21 8.52 6.82 12.79 15.68 12.76 26.6z"/> <path class="st23" d="m945.44 829.83c-4.92 4.93-9.84 9.87-14.77 14.8-0.26-0.24-0.52-0.48-0.77-0.71 4.85-5 9.7-10.01 14.56-15.01 0.33 0.31 0.65 0.62 0.98 0.92z"/> <path class="st23" d="m1095.3 866.94c3.14-13.42 11.65-23.64 20.98-33.32 0.75-0.78 3.56-1 3.88-0.49 0.93 1.45 2.02 3.92 1.38 5.06-2.88 5.17-5.97 10.32-9.68 14.92-4.43 5.5-9.55 10.44-14.38 15.62-0.72-0.6-1.45-1.19-2.18-1.79z"/> <path class="st21" d="m1026.2 994.64c0.01-0.54 0.01-1.07 0.01-1.61 0 0.54 0 1.07-0.01 1.61z"/> <path class="st21" d="m1093.7 709.29c-1.37 9.45-1.47 19.32-4.39 28.27-4.56 13.94-13.61 18.19-27.92 15.02-4.3-0.95-8.36-2.99-12.53-4.53 1.87-0.92 3.75-2.65 5.61-2.63 17.53 0.12 26.35-11.38 33.72-24.86 2.01-3.66 3.69-7.51 5.51-11.27z"/> <path class="st23" d="m1032.9 703.71c10.38-11.57 22.04-17.21 35.81-18.41 1.75-0.15 4.47 1.9 5.32 3.63 0.51 1.03-1.37 4.53-2.83 5.03-11.21 3.84-22.56 7.24-33.91 10.68-0.75 0.24-1.77-0.34-4.39-0.93z"/> <path class="st23" d="m857.99 918.19c10.21-6.63 35.03-3.91 44.3 4.41-16.01 8.96-32.7 6.94-44.3-4.41z"/> <path class="st23" d="m847.72 861.61c-0.25-5.48-0.5-10.95-0.75-16.43 0.94-0.01 1.87-0.01 2.81-0.02v16.42c-0.68 0.01-1.37 0.02-2.06 0.03z"/> <path class="st23" d="m898.67 760.38c3.62 3.9 6.9 5.8 7.19 8.09 0.63 4.95-2.22 9.28-7.5 9.02-2.48-0.12-7-4.28-6.72-5.95 0.59-3.4 3.79-6.36 7.03-11.16z"/> </svg>